<?xml version="1.0" encoding="UTF-8" standalone="no"?>
<!DOCTYPE svg PUBLIC "-//W3C//DTD SVG 1.1//EN" "http://www.w3.org/Graphics/SVG/1.1/DTD/svg11.dtd">
<svg width="100%" height="100%" viewBox="0 0 2000 2000" version="1.1" xmlns="http://www.w3.org/2000/svg" xmlns:xlink="http://www.w3.org/1999/xlink" xml:space="preserve" xmlns:serif="http://www.serif.com/" style="fill-rule:evenodd;clip-rule:evenodd;stroke-linejoin:round;stroke-miterlimit:2;">
    <rect id="Artboard1" x="0" y="0" width="2000" height="2000" style="fill:none;"/>
    <g id="Artboard11" serif:id="Artboard1">
        <g transform="matrix(1.38479,0,0,1.38479,-270.967,-298.705)">
            <g transform="matrix(19,0,0,19,752.658,711.082)">
                <path d="M0.431,-0.311L0.439,-0.506L0.43,-0.506L0.3,-0.147L0.17,-0.506L0.161,-0.506L0.169,-0.311L0.169,-0L0.039,-0L0.039,-0.698L0.216,-0.698L0.302,-0.463L0.31,-0.463L0.396,-0.698L0.561,-0.698L0.561,-0L0.431,-0L0.431,-0.311Z" style="fill-opacity:0.25;fill-rule:nonzero;"/>
            </g>
            <g transform="matrix(19,0,0,19,765.008,711.082)">
                <path d="M0.08,-0L0.08,-0.698L0.526,-0.698L0.526,-0.575L0.23,-0.575L0.23,-0.415L0.516,-0.415L0.516,-0.292L0.23,-0.292L0.23,-0.123L0.526,-0.123L0.526,-0L0.08,-0Z" style="fill-opacity:0.25;fill-rule:nonzero;"/>
            </g>
            <g transform="matrix(19,0,0,19,777.358,711.082)">
                <path d="M0.316,0.012C0.223,0.012 0.154,-0.02 0.109,-0.083C0.064,-0.146 0.041,-0.234 0.041,-0.349C0.041,-0.464 0.064,-0.553 0.109,-0.616C0.154,-0.679 0.223,-0.71 0.316,-0.71C0.352,-0.71 0.384,-0.705 0.411,-0.696C0.439,-0.686 0.463,-0.672 0.483,-0.655C0.503,-0.638 0.52,-0.617 0.533,-0.592C0.546,-0.567 0.556,-0.54 0.563,-0.509L0.423,-0.475C0.419,-0.492 0.414,-0.507 0.409,-0.521C0.404,-0.535 0.397,-0.547 0.389,-0.557C0.38,-0.567 0.37,-0.575 0.358,-0.581C0.345,-0.586 0.33,-0.589 0.313,-0.589C0.272,-0.589 0.244,-0.573 0.227,-0.542C0.21,-0.51 0.201,-0.466 0.201,-0.41L0.201,-0.288C0.201,-0.232 0.21,-0.188 0.227,-0.157C0.244,-0.125 0.272,-0.109 0.313,-0.109C0.348,-0.109 0.373,-0.12 0.389,-0.141C0.404,-0.162 0.416,-0.19 0.423,-0.223L0.563,-0.189C0.556,-0.158 0.546,-0.131 0.533,-0.106C0.52,-0.081 0.503,-0.06 0.483,-0.043C0.463,-0.025 0.439,-0.011 0.411,-0.002C0.384,0.007 0.352,0.012 0.316,0.012Z" style="fill-opacity:0.25;fill-rule:nonzero;"/>
            </g>
            <g transform="matrix(19,0,0,19,789.708,711.082)">
                <path d="M0.388,-0.292L0.212,-0.292L0.212,-0L0.061,-0L0.061,-0.698L0.212,-0.698L0.212,-0.415L0.388,-0.415L0.388,-0.698L0.539,-0.698L0.539,-0L0.388,-0L0.388,-0.292Z" style="fill-opacity:0.25;fill-rule:nonzero;"/>
            </g>
            <g transform="matrix(19,0,0,19,802.058,711.082)">
                <path d="M0.435,-0L0.391,-0.168L0.2,-0.168L0.157,-0L0.005,-0L0.194,-0.698L0.406,-0.698L0.595,-0L0.435,-0ZM0.3,-0.553L0.292,-0.553L0.224,-0.289L0.368,-0.289L0.3,-0.553Z" style="fill-opacity:0.25;fill-rule:nonzero;"/>
            </g>
            <g transform="matrix(19,0,0,19,814.408,711.082)">
                <path d="M0.2,-0.464L0.189,-0.464L0.189,-0L0.061,-0L0.061,-0.698L0.241,-0.698L0.4,-0.234L0.411,-0.234L0.411,-0.698L0.539,-0.698L0.539,-0L0.359,-0L0.2,-0.464Z" style="fill-opacity:0.25;fill-rule:nonzero;"/>
            </g>
            <g transform="matrix(19,0,0,19,826.758,711.082)">
                <path d="M0.075,-0L0.075,-0.111L0.225,-0.111L0.225,-0.587L0.075,-0.587L0.075,-0.698L0.525,-0.698L0.525,-0.587L0.375,-0.587L0.375,-0.111L0.525,-0.111L0.525,-0L0.075,-0Z" style="fill-opacity:0.25;fill-rule:nonzero;"/>
            </g>
            <g transform="matrix(19,0,0,19,839.108,711.082)">
                <path d="M0.28,-0.291L0.218,-0.204L0.218,-0L0.068,-0L0.068,-0.698L0.218,-0.698L0.218,-0.406L0.226,-0.406L0.302,-0.522L0.425,-0.698L0.593,-0.698L0.384,-0.403L0.603,-0L0.434,-0L0.28,-0.291Z" style="fill-opacity:0.25;fill-rule:nonzero;"/>
            </g>
            <g transform="matrix(19,0,0,19,851.458,711.082)">
                <path d="M0.435,-0L0.391,-0.168L0.2,-0.168L0.157,-0L0.005,-0L0.194,-0.698L0.406,-0.698L0.595,-0L0.435,-0ZM0.3,-0.553L0.292,-0.553L0.224,-0.289L0.368,-0.289L0.3,-0.553Z" style="fill-opacity:0.25;fill-rule:nonzero;"/>
            </g>
        </g>
        <g transform="matrix(1.38479,0,0,1.38479,-571.821,14.9956)">
            <g transform="matrix(19,0,0,19,752.658,711.082)">
                <path d="M0.076,-0L0.076,-0.698L0.346,-0.698C0.38,-0.698 0.41,-0.693 0.437,-0.683C0.464,-0.672 0.486,-0.657 0.504,-0.638C0.523,-0.619 0.537,-0.595 0.546,-0.568C0.555,-0.541 0.56,-0.51 0.56,-0.476C0.56,-0.442 0.555,-0.411 0.546,-0.384C0.537,-0.357 0.523,-0.333 0.504,-0.314C0.486,-0.295 0.464,-0.28 0.437,-0.27C0.41,-0.259 0.38,-0.254 0.346,-0.254L0.227,-0.254L0.227,-0L0.076,-0ZM0.227,-0.375L0.308,-0.375C0.343,-0.375 0.368,-0.382 0.382,-0.395C0.395,-0.408 0.402,-0.43 0.402,-0.461L0.402,-0.491C0.402,-0.522 0.395,-0.544 0.382,-0.557C0.368,-0.57 0.343,-0.577 0.308,-0.577L0.227,-0.577L0.227,-0.375Z" style="fill-opacity:0.25;fill-rule:nonzero;"/>
            </g>
            <g transform="matrix(19,0,0,19,765.008,711.082)">
                <path d="M0.224,-0L0.076,-0L0.076,-0.698L0.346,-0.698C0.38,-0.698 0.41,-0.693 0.437,-0.683C0.464,-0.672 0.486,-0.657 0.504,-0.638C0.523,-0.619 0.537,-0.595 0.546,-0.568C0.555,-0.541 0.56,-0.51 0.56,-0.476C0.56,-0.427 0.549,-0.384 0.528,-0.349C0.507,-0.314 0.476,-0.29 0.437,-0.279L0.574,-0L0.41,-0L0.293,-0.259L0.224,-0.259L0.224,-0ZM0.31,-0.375C0.345,-0.375 0.37,-0.382 0.384,-0.395C0.397,-0.408 0.404,-0.43 0.404,-0.461L0.404,-0.491C0.404,-0.522 0.397,-0.544 0.384,-0.557C0.37,-0.57 0.345,-0.577 0.31,-0.577L0.224,-0.577L0.224,-0.375L0.31,-0.375Z" style="fill-opacity:0.25;fill-rule:nonzero;"/>
            </g>
            <g transform="matrix(19,0,0,19,777.358,711.082)">
                <path d="M0.3,0.012C0.207,0.012 0.138,-0.02 0.094,-0.083C0.049,-0.146 0.027,-0.235 0.027,-0.349C0.027,-0.463 0.049,-0.552 0.094,-0.615C0.138,-0.678 0.207,-0.71 0.3,-0.71C0.393,-0.71 0.462,-0.678 0.506,-0.615C0.551,-0.552 0.573,-0.463 0.573,-0.349C0.573,-0.235 0.551,-0.146 0.506,-0.083C0.462,-0.02 0.393,0.012 0.3,0.012ZM0.3,-0.109C0.343,-0.109 0.372,-0.125 0.389,-0.157C0.405,-0.188 0.413,-0.232 0.413,-0.289L0.413,-0.41C0.413,-0.466 0.405,-0.51 0.389,-0.542C0.372,-0.573 0.343,-0.589 0.3,-0.589C0.257,-0.589 0.228,-0.573 0.212,-0.542C0.195,-0.51 0.187,-0.466 0.187,-0.41L0.187,-0.288C0.187,-0.232 0.195,-0.188 0.212,-0.157C0.228,-0.125 0.257,-0.109 0.3,-0.109Z" style="fill-opacity:0.25;fill-rule:nonzero;"/>
            </g>
            <g transform="matrix(19,0,0,19,789.708,711.082)">
                <path d="M0.411,-0.099L0.402,-0.099C0.396,-0.084 0.389,-0.07 0.38,-0.057C0.371,-0.044 0.361,-0.032 0.348,-0.021C0.335,-0.011 0.321,-0.003 0.304,0.003C0.286,0.009 0.267,0.012 0.246,0.012C0.212,0.012 0.182,0.004 0.156,-0.012C0.129,-0.028 0.107,-0.051 0.089,-0.082C0.071,-0.113 0.058,-0.15 0.049,-0.194C0.04,-0.238 0.035,-0.288 0.035,-0.343C0.035,-0.462 0.057,-0.553 0.1,-0.616C0.143,-0.679 0.21,-0.71 0.301,-0.71C0.337,-0.71 0.369,-0.705 0.396,-0.696C0.423,-0.686 0.447,-0.672 0.467,-0.655C0.486,-0.637 0.502,-0.616 0.515,-0.591C0.528,-0.566 0.538,-0.539 0.545,-0.509L0.405,-0.475C0.401,-0.49 0.397,-0.504 0.392,-0.518C0.387,-0.531 0.38,-0.543 0.372,-0.554C0.364,-0.565 0.354,-0.573 0.342,-0.58C0.33,-0.586 0.315,-0.589 0.298,-0.589C0.26,-0.589 0.233,-0.573 0.218,-0.542C0.202,-0.511 0.194,-0.467 0.194,-0.41L0.194,-0.296C0.194,-0.239 0.203,-0.194 0.22,-0.16C0.236,-0.126 0.267,-0.109 0.31,-0.109C0.344,-0.109 0.369,-0.119 0.386,-0.139C0.403,-0.159 0.411,-0.185 0.411,-0.216L0.411,-0.267L0.292,-0.267L0.292,-0.373L0.545,-0.373L0.545,-0L0.411,-0L0.411,-0.099Z" style="fill-opacity:0.25;fill-rule:nonzero;"/>
            </g>
            <g transform="matrix(19,0,0,19,802.058,711.082)">
                <path d="M0.224,-0L0.076,-0L0.076,-0.698L0.346,-0.698C0.38,-0.698 0.41,-0.693 0.437,-0.683C0.464,-0.672 0.486,-0.657 0.504,-0.638C0.523,-0.619 0.537,-0.595 0.546,-0.568C0.555,-0.541 0.56,-0.51 0.56,-0.476C0.56,-0.427 0.549,-0.384 0.528,-0.349C0.507,-0.314 0.476,-0.29 0.437,-0.279L0.574,-0L0.41,-0L0.293,-0.259L0.224,-0.259L0.224,-0ZM0.31,-0.375C0.345,-0.375 0.37,-0.382 0.384,-0.395C0.397,-0.408 0.404,-0.43 0.404,-0.461L0.404,-0.491C0.404,-0.522 0.397,-0.544 0.384,-0.557C0.37,-0.57 0.345,-0.577 0.31,-0.577L0.224,-0.577L0.224,-0.375L0.31,-0.375Z" style="fill-opacity:0.25;fill-rule:nonzero;"/>
            </g>
            <g transform="matrix(19,0,0,19,814.408,711.082)">
                <path d="M0.435,-0L0.391,-0.168L0.2,-0.168L0.157,-0L0.005,-0L0.194,-0.698L0.406,-0.698L0.595,-0L0.435,-0ZM0.3,-0.553L0.292,-0.553L0.224,-0.289L0.368,-0.289L0.3,-0.553Z" style="fill-opacity:0.25;fill-rule:nonzero;"/>
            </g>
            <g transform="matrix(19,0,0,19,826.758,711.082)">
                <path d="M0.431,-0.311L0.439,-0.506L0.43,-0.506L0.3,-0.147L0.17,-0.506L0.161,-0.506L0.169,-0.311L0.169,-0L0.039,-0L0.039,-0.698L0.216,-0.698L0.302,-0.463L0.31,-0.463L0.396,-0.698L0.561,-0.698L0.561,-0L0.431,-0L0.431,-0.311Z" style="fill-opacity:0.25;fill-rule:nonzero;"/>
            </g>
            <g transform="matrix(19,0,0,19,839.108,711.082)">
                <path d="M0.3,0.012C0.207,0.012 0.138,-0.02 0.094,-0.083C0.049,-0.146 0.027,-0.235 0.027,-0.349C0.027,-0.463 0.049,-0.552 0.094,-0.615C0.138,-0.678 0.207,-0.71 0.3,-0.71C0.393,-0.71 0.462,-0.678 0.506,-0.615C0.551,-0.552 0.573,-0.463 0.573,-0.349C0.573,-0.235 0.551,-0.146 0.506,-0.083C0.462,-0.02 0.393,0.012 0.3,0.012ZM0.3,-0.109C0.343,-0.109 0.372,-0.125 0.389,-0.157C0.405,-0.188 0.413,-0.232 0.413,-0.289L0.413,-0.41C0.413,-0.466 0.405,-0.51 0.389,-0.542C0.372,-0.573 0.343,-0.589 0.3,-0.589C0.257,-0.589 0.228,-0.573 0.212,-0.542C0.195,-0.51 0.187,-0.466 0.187,-0.41L0.187,-0.288C0.187,-0.232 0.195,-0.188 0.212,-0.157C0.228,-0.125 0.257,-0.109 0.3,-0.109Z" style="fill-opacity:0.25;fill-rule:nonzero;"/>
            </g>
            <g transform="matrix(19,0,0,19,851.458,711.082)">
                <path d="M0.194,-0L0.009,-0.698L0.176,-0.698L0.258,-0.343L0.299,-0.142L0.307,-0.142L0.349,-0.343L0.432,-0.698L0.591,-0.698L0.406,-0L0.194,-0Z" style="fill-opacity:0.25;fill-rule:nonzero;"/>
            </g>
            <g transform="matrix(19,0,0,19,863.808,711.082)">
                <path d="M0.08,-0L0.08,-0.698L0.526,-0.698L0.526,-0.575L0.23,-0.575L0.23,-0.415L0.516,-0.415L0.516,-0.292L0.23,-0.292L0.23,-0.123L0.526,-0.123L0.526,-0L0.08,-0ZM0.319,-0.74L0.231,-0.783L0.33,-0.977L0.453,-0.916L0.319,-0.74Z" style="fill-opacity:0.25;fill-rule:nonzero;"/>
            </g>
            <g transform="matrix(19,0,0,19,752.658,730.082)">
                <path d="M0.064,-0.698L0.289,-0.698C0.383,-0.698 0.453,-0.668 0.498,-0.608C0.543,-0.548 0.566,-0.462 0.566,-0.349C0.566,-0.236 0.543,-0.15 0.498,-0.09C0.453,-0.03 0.383,-0 0.289,-0L0.064,-0L0.064,-0.698ZM0.279,-0.118C0.324,-0.118 0.356,-0.132 0.377,-0.161C0.398,-0.19 0.408,-0.231 0.408,-0.286L0.408,-0.413C0.408,-0.467 0.398,-0.508 0.377,-0.537C0.356,-0.566 0.324,-0.58 0.279,-0.58L0.212,-0.58L0.212,-0.118L0.279,-0.118Z" style="fill-opacity:0.25;fill-rule:nonzero;"/>
            </g>
            <g transform="matrix(19,0,0,19,765.008,730.082)">
                <path d="M0.2,-0.464L0.189,-0.464L0.189,-0L0.061,-0L0.061,-0.698L0.241,-0.698L0.4,-0.234L0.411,-0.234L0.411,-0.698L0.539,-0.698L0.539,-0L0.359,-0L0.2,-0.464Z" style="fill-opacity:0.25;fill-rule:nonzero;"/>
            </g>
            <g transform="matrix(19,0,0,19,777.358,730.082)">
                <path d="M0.225,-0L0.225,-0.247L0.004,-0.698L0.171,-0.698L0.245,-0.536L0.299,-0.399L0.307,-0.399L0.361,-0.536L0.435,-0.698L0.596,-0.698L0.375,-0.247L0.375,-0L0.225,-0Z" style="fill-opacity:0.25;fill-rule:nonzero;"/>
            </g>
        </g>
        <g transform="matrix(1.38479,0,0,1.38479,-346.335,346.893)">
            <g transform="matrix(19,0,0,19,753.133,711.082)">
                <path d="M0.194,-0L0.009,-0.698L0.176,-0.698L0.258,-0.343L0.299,-0.142L0.307,-0.142L0.349,-0.343L0.432,-0.698L0.591,-0.698L0.406,-0L0.194,-0Z" style="fill-opacity:0.25;fill-rule:nonzero;"/>
            </g>
            <g transform="matrix(19,0,0,19,765.483,711.082)">
                <path d="M0.225,-0L0.225,-0.247L0.004,-0.698L0.171,-0.698L0.245,-0.536L0.299,-0.399L0.307,-0.399L0.361,-0.536L0.435,-0.698L0.596,-0.698L0.375,-0.247L0.375,-0L0.225,-0ZM0.316,-0.74L0.228,-0.783L0.327,-0.977L0.45,-0.916L0.316,-0.74Z" style="fill-opacity:0.25;fill-rule:nonzero;"/>
            </g>
            <g transform="matrix(19,0,0,19,777.833,711.082)">
                <path d="M0.076,-0L0.076,-0.698L0.346,-0.698C0.38,-0.698 0.41,-0.693 0.437,-0.683C0.464,-0.672 0.486,-0.657 0.504,-0.638C0.523,-0.619 0.537,-0.595 0.546,-0.568C0.555,-0.541 0.56,-0.51 0.56,-0.476C0.56,-0.442 0.555,-0.411 0.546,-0.384C0.537,-0.357 0.523,-0.333 0.504,-0.314C0.486,-0.295 0.464,-0.28 0.437,-0.27C0.41,-0.259 0.38,-0.254 0.346,-0.254L0.227,-0.254L0.227,-0L0.076,-0ZM0.227,-0.375L0.308,-0.375C0.343,-0.375 0.368,-0.382 0.382,-0.395C0.395,-0.408 0.402,-0.43 0.402,-0.461L0.402,-0.491C0.402,-0.522 0.395,-0.544 0.382,-0.557C0.368,-0.57 0.343,-0.577 0.308,-0.577L0.227,-0.577L0.227,-0.375Z" style="fill-opacity:0.25;fill-rule:nonzero;"/>
            </g>
            <g transform="matrix(19,0,0,19,790.183,711.082)">
                <path d="M0.224,-0L0.076,-0L0.076,-0.698L0.346,-0.698C0.38,-0.698 0.41,-0.693 0.437,-0.683C0.464,-0.672 0.486,-0.657 0.504,-0.638C0.523,-0.619 0.537,-0.595 0.546,-0.568C0.555,-0.541 0.56,-0.51 0.56,-0.476C0.56,-0.427 0.549,-0.384 0.528,-0.349C0.507,-0.314 0.476,-0.29 0.437,-0.279L0.574,-0L0.41,-0L0.293,-0.259L0.224,-0.259L0.224,-0ZM0.31,-0.375C0.345,-0.375 0.37,-0.382 0.384,-0.395C0.397,-0.408 0.404,-0.43 0.404,-0.461L0.404,-0.491C0.404,-0.522 0.397,-0.544 0.384,-0.557C0.37,-0.57 0.345,-0.577 0.31,-0.577L0.224,-0.577L0.224,-0.375L0.31,-0.375Z" style="fill-opacity:0.25;fill-rule:nonzero;"/>
            </g>
            <g transform="matrix(19,0,0,19,802.533,711.082)">
                <path d="M0.435,-0L0.391,-0.168L0.2,-0.168L0.157,-0L0.005,-0L0.194,-0.698L0.406,-0.698L0.595,-0L0.435,-0ZM0.3,-0.553L0.292,-0.553L0.224,-0.289L0.368,-0.289L0.3,-0.553Z" style="fill-opacity:0.25;fill-rule:nonzero;"/>
            </g>
            <g transform="matrix(19,0,0,19,814.883,711.082)">
                <path d="M0.194,-0L0.009,-0.698L0.176,-0.698L0.258,-0.343L0.299,-0.142L0.307,-0.142L0.349,-0.343L0.432,-0.698L0.591,-0.698L0.406,-0L0.194,-0Z" style="fill-opacity:0.25;fill-rule:nonzero;"/>
            </g>
            <g transform="matrix(19,0,0,19,827.233,711.082)">
                <path d="M0.435,-0L0.391,-0.168L0.2,-0.168L0.157,-0L0.005,-0L0.194,-0.698L0.406,-0.698L0.595,-0L0.435,-0ZM0.3,-0.553L0.292,-0.553L0.224,-0.289L0.368,-0.289L0.3,-0.553Z" style="fill-opacity:0.25;fill-rule:nonzero;"/>
            </g>
            <g transform="matrix(19,0,0,19,851.933,711.082)">
                <path d="M0.435,-0L0.391,-0.168L0.2,-0.168L0.157,-0L0.005,-0L0.194,-0.698L0.406,-0.698L0.595,-0L0.435,-0ZM0.3,-0.553L0.292,-0.553L0.224,-0.289L0.368,-0.289L0.3,-0.553Z" style="fill-opacity:0.25;fill-rule:nonzero;"/>
            </g>
            <g transform="matrix(19,0,0,19,753.133,730.082)">
                <path d="M0.289,0.012C0.23,0.012 0.179,0.002 0.136,-0.017C0.093,-0.036 0.058,-0.062 0.031,-0.095L0.118,-0.191C0.143,-0.163 0.171,-0.142 0.202,-0.129C0.232,-0.116 0.263,-0.109 0.294,-0.109C0.33,-0.109 0.357,-0.117 0.376,-0.133C0.395,-0.149 0.404,-0.173 0.404,-0.203C0.404,-0.228 0.397,-0.247 0.383,-0.259C0.368,-0.272 0.344,-0.281 0.31,-0.287L0.237,-0.299C0.174,-0.309 0.129,-0.332 0.101,-0.368C0.073,-0.404 0.059,-0.447 0.059,-0.498C0.059,-0.566 0.081,-0.618 0.125,-0.655C0.169,-0.692 0.231,-0.71 0.31,-0.71C0.364,-0.71 0.411,-0.702 0.451,-0.685C0.491,-0.669 0.523,-0.646 0.548,-0.618L0.463,-0.523C0.444,-0.544 0.422,-0.56 0.397,-0.572C0.372,-0.583 0.343,-0.589 0.311,-0.589C0.244,-0.589 0.21,-0.561 0.21,-0.505C0.21,-0.481 0.218,-0.463 0.233,-0.451C0.248,-0.439 0.272,-0.43 0.306,-0.424L0.379,-0.411C0.436,-0.401 0.479,-0.379 0.51,-0.347C0.541,-0.314 0.556,-0.27 0.556,-0.215C0.556,-0.182 0.55,-0.152 0.539,-0.124C0.528,-0.097 0.511,-0.073 0.488,-0.052C0.465,-0.032 0.438,-0.016 0.405,-0.005C0.372,0.006 0.333,0.012 0.289,0.012Z" style="fill-opacity:0.25;fill-rule:nonzero;"/>
            </g>
            <g transform="matrix(19,0,0,19,765.483,730.082)">
                <path d="M0.375,-0.575L0.375,-0L0.225,-0L0.225,-0.575L0.024,-0.575L0.024,-0.698L0.576,-0.698L0.576,-0.575L0.375,-0.575Z" style="fill-opacity:0.25;fill-rule:nonzero;"/>
            </g>
            <g transform="matrix(19,0,0,19,777.833,730.082)">
                <path d="M0.225,-0L0.225,-0.247L0.004,-0.698L0.171,-0.698L0.245,-0.536L0.299,-0.399L0.307,-0.399L0.361,-0.536L0.435,-0.698L0.596,-0.698L0.375,-0.247L0.375,-0L0.225,-0Z" style="fill-opacity:0.25;fill-rule:nonzero;"/>
            </g>
            <g transform="matrix(19,0,0,19,790.183,730.082)">
                <path d="M0.092,-0L0.092,-0.698L0.243,-0.698L0.243,-0.123L0.543,-0.123L0.543,-0L0.092,-0Z" style="fill-opacity:0.25;fill-rule:nonzero;"/>
            </g>
            <g transform="matrix(19,0,0,19,802.533,730.082)">
                <path d="M0.075,-0L0.075,-0.111L0.225,-0.111L0.225,-0.587L0.075,-0.587L0.075,-0.698L0.525,-0.698L0.525,-0.587L0.375,-0.587L0.375,-0.111L0.525,-0.111L0.525,-0L0.075,-0Z" style="fill-opacity:0.25;fill-rule:nonzero;"/>
            </g>
            <g transform="matrix(19,0,0,19,814.883,730.082)">
                <path d="M0.551,-0L0.048,-0L0.048,-0.131L0.373,-0.575L0.058,-0.575L0.058,-0.698L0.541,-0.698L0.541,-0.567L0.216,-0.123L0.551,-0.123L0.551,-0Z" style="fill-opacity:0.25;fill-rule:nonzero;"/>
            </g>
            <g transform="matrix(19,0,0,19,827.233,730.082)">
                <path d="M0.435,-0L0.391,-0.168L0.2,-0.168L0.157,-0L0.005,-0L0.194,-0.698L0.406,-0.698L0.595,-0L0.435,-0ZM0.3,-0.553L0.292,-0.553L0.224,-0.289L0.368,-0.289L0.3,-0.553Z" style="fill-opacity:0.25;fill-rule:nonzero;"/>
            </g>
            <g transform="matrix(19,0,0,19,839.583,730.082)">
                <path d="M0.316,0.012C0.223,0.012 0.154,-0.02 0.109,-0.083C0.064,-0.146 0.041,-0.234 0.041,-0.349C0.041,-0.464 0.064,-0.553 0.109,-0.616C0.154,-0.679 0.223,-0.71 0.316,-0.71C0.352,-0.71 0.384,-0.705 0.411,-0.696C0.439,-0.686 0.463,-0.672 0.483,-0.655C0.503,-0.638 0.52,-0.617 0.533,-0.592C0.546,-0.567 0.556,-0.54 0.563,-0.509L0.423,-0.475C0.419,-0.492 0.414,-0.507 0.409,-0.521C0.404,-0.535 0.397,-0.547 0.389,-0.557C0.38,-0.567 0.37,-0.575 0.358,-0.581C0.345,-0.586 0.33,-0.589 0.313,-0.589C0.272,-0.589 0.244,-0.573 0.227,-0.542C0.21,-0.51 0.201,-0.466 0.201,-0.41L0.201,-0.288C0.201,-0.232 0.21,-0.188 0.227,-0.157C0.244,-0.125 0.272,-0.109 0.313,-0.109C0.348,-0.109 0.373,-0.12 0.389,-0.141C0.404,-0.162 0.416,-0.19 0.423,-0.223L0.563,-0.189C0.556,-0.158 0.546,-0.131 0.533,-0.106C0.52,-0.081 0.503,-0.06 0.483,-0.043C0.463,-0.025 0.439,-0.011 0.411,-0.002C0.384,0.007 0.352,0.012 0.316,0.012Z" style="fill-opacity:0.25;fill-rule:nonzero;"/>
            </g>
            <g transform="matrix(19,0,0,19,851.933,730.082)">
                <path d="M0.08,-0L0.08,-0.698L0.526,-0.698L0.526,-0.575L0.23,-0.575L0.23,-0.415L0.516,-0.415L0.516,-0.292L0.23,-0.292L0.23,-0.123L0.526,-0.123L0.526,-0L0.08,-0Z" style="fill-opacity:0.25;fill-rule:nonzero;"/>
            </g>
        </g>
        <g transform="matrix(1.38479,0,0,1.38479,189.87,-205.618)">
            <g transform="matrix(19,0,0,19,777.833,711.082)">
                <path d="M0.551,-0L0.048,-0L0.048,-0.131L0.373,-0.575L0.058,-0.575L0.058,-0.698L0.541,-0.698L0.541,-0.567L0.216,-0.123L0.551,-0.123L0.551,-0Z" style="fill-opacity:0.25;fill-rule:nonzero;"/>
            </g>
            <g transform="matrix(19,0,0,19,790.183,711.082)">
                <path d="M0.435,-0L0.391,-0.168L0.2,-0.168L0.157,-0L0.005,-0L0.194,-0.698L0.406,-0.698L0.595,-0L0.435,-0ZM0.3,-0.553L0.292,-0.553L0.224,-0.289L0.368,-0.289L0.3,-0.553ZM0.316,-0.74L0.228,-0.783L0.327,-0.977L0.45,-0.916L0.316,-0.74Z" style="fill-opacity:0.25;fill-rule:nonzero;"/>
            </g>
            <g transform="matrix(19,0,0,19,802.533,711.082)">
                <path d="M0.551,-0L0.048,-0L0.048,-0.131L0.373,-0.575L0.058,-0.575L0.058,-0.698L0.541,-0.698L0.541,-0.567L0.216,-0.123L0.551,-0.123L0.551,-0Z" style="fill-opacity:0.25;fill-rule:nonzero;"/>
            </g>
            <g transform="matrix(19,0,0,19,814.883,711.082)">
                <path d="M0.08,-0L0.08,-0.698L0.526,-0.698L0.526,-0.575L0.23,-0.575L0.23,-0.415L0.516,-0.415L0.516,-0.292L0.23,-0.292L0.23,-0.123L0.526,-0.123L0.526,-0L0.08,-0Z" style="fill-opacity:0.25;fill-rule:nonzero;"/>
            </g>
            <g transform="matrix(19,0,0,19,827.233,711.082)">
                <path d="M0.431,-0.311L0.439,-0.506L0.43,-0.506L0.3,-0.147L0.17,-0.506L0.161,-0.506L0.169,-0.311L0.169,-0L0.039,-0L0.039,-0.698L0.216,-0.698L0.302,-0.463L0.31,-0.463L0.396,-0.698L0.561,-0.698L0.561,-0L0.431,-0L0.431,-0.311Z" style="fill-opacity:0.25;fill-rule:nonzero;"/>
            </g>
            <g transform="matrix(19,0,0,19,839.583,711.082)">
                <path d="M0.075,-0L0.075,-0.111L0.225,-0.111L0.225,-0.587L0.075,-0.587L0.075,-0.698L0.525,-0.698L0.525,-0.587L0.375,-0.587L0.375,-0.111L0.525,-0.111L0.525,-0L0.075,-0ZM0.316,-0.74L0.228,-0.783L0.327,-0.977L0.45,-0.916L0.316,-0.74Z" style="fill-opacity:0.25;fill-rule:nonzero;"/>
            </g>
        </g>
        <g transform="matrix(1.38479,0,0,1.38479,193.389,-182.705)">
            <g transform="matrix(10.8319,0,0,10.8319,775.684,711.082)">
                <path d="M0.551,-0L0.048,-0L0.048,-0.131L0.373,-0.575L0.058,-0.575L0.058,-0.698L0.541,-0.698L0.541,-0.567L0.216,-0.123L0.551,-0.123L0.551,-0Z" style="fill-opacity:0.25;fill-rule:nonzero;"/>
            </g>
            <g transform="matrix(10.8319,0,0,10.8319,782.725,711.082)">
                <path d="M0.064,-0.698L0.289,-0.698C0.383,-0.698 0.453,-0.668 0.498,-0.608C0.543,-0.548 0.566,-0.462 0.566,-0.349C0.566,-0.236 0.543,-0.15 0.498,-0.09C0.453,-0.03 0.383,-0 0.289,-0L0.064,-0L0.064,-0.698ZM0.279,-0.118C0.324,-0.118 0.356,-0.132 0.377,-0.161C0.398,-0.19 0.408,-0.231 0.408,-0.286L0.408,-0.413C0.408,-0.467 0.398,-0.508 0.377,-0.537C0.356,-0.566 0.324,-0.58 0.279,-0.58L0.212,-0.58L0.212,-0.118L0.279,-0.118Z" style="fill-opacity:0.25;fill-rule:nonzero;"/>
            </g>
            <g transform="matrix(10.8319,0,0,10.8319,789.766,711.082)">
                <path d="M0.224,-0L0.076,-0L0.076,-0.698L0.346,-0.698C0.38,-0.698 0.41,-0.693 0.437,-0.683C0.464,-0.672 0.486,-0.657 0.504,-0.638C0.523,-0.619 0.537,-0.595 0.546,-0.568C0.555,-0.541 0.56,-0.51 0.56,-0.476C0.56,-0.427 0.549,-0.384 0.528,-0.349C0.507,-0.314 0.476,-0.29 0.437,-0.279L0.574,-0L0.41,-0L0.293,-0.259L0.224,-0.259L0.224,-0ZM0.31,-0.375C0.345,-0.375 0.37,-0.382 0.384,-0.395C0.397,-0.408 0.404,-0.43 0.404,-0.461L0.404,-0.491C0.404,-0.522 0.397,-0.544 0.384,-0.557C0.37,-0.57 0.345,-0.577 0.31,-0.577L0.224,-0.577L0.224,-0.375L0.31,-0.375Z" style="fill-opacity:0.25;fill-rule:nonzero;"/>
            </g>
            <g transform="matrix(10.8319,0,0,10.8319,796.806,711.082)">
                <path d="M0.435,-0L0.391,-0.168L0.2,-0.168L0.157,-0L0.005,-0L0.194,-0.698L0.406,-0.698L0.595,-0L0.435,-0ZM0.3,-0.553L0.292,-0.553L0.224,-0.289L0.368,-0.289L0.3,-0.553Z" style="fill-opacity:0.25;fill-rule:nonzero;"/>
            </g>
            <g transform="matrix(10.8319,0,0,10.8319,803.847,711.082)">
                <path d="M0.194,-0L0.009,-0.698L0.176,-0.698L0.258,-0.343L0.299,-0.142L0.307,-0.142L0.349,-0.343L0.432,-0.698L0.591,-0.698L0.406,-0L0.194,-0Z" style="fill-opacity:0.25;fill-rule:nonzero;"/>
            </g>
            <g transform="matrix(10.8319,0,0,10.8319,810.888,711.082)">
                <path d="M0.3,0.012C0.207,0.012 0.138,-0.02 0.094,-0.083C0.049,-0.146 0.027,-0.235 0.027,-0.349C0.027,-0.463 0.049,-0.552 0.094,-0.615C0.138,-0.678 0.207,-0.71 0.3,-0.71C0.393,-0.71 0.462,-0.678 0.506,-0.615C0.551,-0.552 0.573,-0.463 0.573,-0.349C0.573,-0.235 0.551,-0.146 0.506,-0.083C0.462,-0.02 0.393,0.012 0.3,0.012ZM0.3,-0.109C0.343,-0.109 0.372,-0.125 0.389,-0.157C0.405,-0.188 0.413,-0.232 0.413,-0.289L0.413,-0.41C0.413,-0.466 0.405,-0.51 0.389,-0.542C0.372,-0.573 0.343,-0.589 0.3,-0.589C0.257,-0.589 0.228,-0.573 0.212,-0.542C0.195,-0.51 0.187,-0.466 0.187,-0.41L0.187,-0.288C0.187,-0.232 0.195,-0.188 0.212,-0.157C0.228,-0.125 0.257,-0.109 0.3,-0.109Z" style="fill-opacity:0.25;fill-rule:nonzero;"/>
            </g>
            <g transform="matrix(10.8319,0,0,10.8319,817.929,711.082)">
                <path d="M0.375,-0.575L0.375,-0L0.225,-0L0.225,-0.575L0.024,-0.575L0.024,-0.698L0.576,-0.698L0.576,-0.575L0.375,-0.575Z" style="fill-opacity:0.25;fill-rule:nonzero;"/>
            </g>
            <g transform="matrix(10.8319,0,0,10.8319,824.969,711.082)">
                <path d="M0.2,-0.464L0.189,-0.464L0.189,-0L0.061,-0L0.061,-0.698L0.241,-0.698L0.4,-0.234L0.411,-0.234L0.411,-0.698L0.539,-0.698L0.539,-0L0.359,-0L0.2,-0.464Z" style="fill-opacity:0.25;fill-rule:nonzero;"/>
            </g>
            <g transform="matrix(10.8319,0,0,10.8319,832.01,711.082)">
                <path d="M0.075,-0L0.075,-0.111L0.225,-0.111L0.225,-0.587L0.075,-0.587L0.075,-0.698L0.525,-0.698L0.525,-0.587L0.375,-0.587L0.375,-0.111L0.525,-0.111L0.525,-0L0.075,-0ZM0.316,-0.74L0.228,-0.783L0.327,-0.977L0.45,-0.916L0.316,-0.74Z" style="fill-opacity:0.25;fill-rule:nonzero;"/>
            </g>
            <g transform="matrix(10.8319,0,0,10.8319,839.051,711.082)">
                <path d="M0.28,-0.291L0.218,-0.204L0.218,-0L0.068,-0L0.068,-0.698L0.218,-0.698L0.218,-0.406L0.226,-0.406L0.302,-0.522L0.425,-0.698L0.593,-0.698L0.384,-0.403L0.603,-0L0.434,-0L0.28,-0.291Z" style="fill-opacity:0.25;fill-rule:nonzero;"/>
            </g>
            <g transform="matrix(10.8319,0,0,10.8319,775.684,721.914)">
                <path d="M0.064,-0.698L0.289,-0.698C0.383,-0.698 0.453,-0.668 0.498,-0.608C0.543,-0.548 0.566,-0.462 0.566,-0.349C0.566,-0.236 0.543,-0.15 0.498,-0.09C0.453,-0.03 0.383,-0 0.289,-0L0.064,-0L0.064,-0.698ZM0.279,-0.118C0.324,-0.118 0.356,-0.132 0.377,-0.161C0.398,-0.19 0.408,-0.231 0.408,-0.286L0.408,-0.413C0.408,-0.467 0.398,-0.508 0.377,-0.537C0.356,-0.566 0.324,-0.58 0.279,-0.58L0.212,-0.58L0.212,-0.118L0.279,-0.118Z" style="fill-opacity:0.25;fill-rule:nonzero;"/>
            </g>
            <g transform="matrix(10.8319,0,0,10.8319,782.725,721.914)">
                <path d="M0.3,0.012C0.207,0.012 0.138,-0.02 0.094,-0.083C0.049,-0.146 0.027,-0.235 0.027,-0.349C0.027,-0.463 0.049,-0.552 0.094,-0.615C0.138,-0.678 0.207,-0.71 0.3,-0.71C0.393,-0.71 0.462,-0.678 0.506,-0.615C0.551,-0.552 0.573,-0.463 0.573,-0.349C0.573,-0.235 0.551,-0.146 0.506,-0.083C0.462,-0.02 0.393,0.012 0.3,0.012ZM0.3,-0.109C0.343,-0.109 0.372,-0.125 0.389,-0.157C0.405,-0.188 0.413,-0.232 0.413,-0.289L0.413,-0.41C0.413,-0.466 0.405,-0.51 0.389,-0.542C0.372,-0.573 0.343,-0.589 0.3,-0.589C0.257,-0.589 0.228,-0.573 0.212,-0.542C0.195,-0.51 0.187,-0.466 0.187,-0.41L0.187,-0.288C0.187,-0.232 0.195,-0.188 0.212,-0.157C0.228,-0.125 0.257,-0.109 0.3,-0.109Z" style="fill-opacity:0.25;fill-rule:nonzero;"/>
            </g>
            <g transform="matrix(10.8319,0,0,10.8319,789.766,721.914)">
                <path d="M0.28,-0.291L0.218,-0.204L0.218,-0L0.068,-0L0.068,-0.698L0.218,-0.698L0.218,-0.406L0.226,-0.406L0.302,-0.522L0.425,-0.698L0.593,-0.698L0.384,-0.403L0.603,-0L0.434,-0L0.28,-0.291Z" style="fill-opacity:0.25;fill-rule:nonzero;"/>
            </g>
            <g transform="matrix(10.8319,0,0,10.8319,796.806,721.914)">
                <path d="M0.205,-0.698L0.205,-0.256C0.205,-0.234 0.206,-0.214 0.207,-0.196C0.209,-0.177 0.213,-0.162 0.22,-0.149C0.226,-0.136 0.235,-0.127 0.248,-0.119C0.261,-0.113 0.278,-0.109 0.3,-0.109C0.322,-0.109 0.339,-0.113 0.352,-0.119C0.365,-0.127 0.374,-0.136 0.381,-0.149C0.387,-0.162 0.391,-0.177 0.393,-0.196C0.394,-0.214 0.395,-0.234 0.395,-0.256L0.395,-0.698L0.545,-0.698L0.545,-0.276C0.545,-0.228 0.542,-0.186 0.536,-0.15C0.529,-0.114 0.517,-0.084 0.499,-0.06C0.481,-0.036 0.456,-0.018 0.424,-0.006C0.392,0.006 0.351,0.012 0.3,0.012C0.249,0.012 0.208,0.006 0.176,-0.006C0.144,-0.018 0.119,-0.036 0.101,-0.06C0.083,-0.084 0.071,-0.114 0.065,-0.15C0.058,-0.186 0.055,-0.228 0.055,-0.276L0.055,-0.698L0.205,-0.698Z" style="fill-opacity:0.25;fill-rule:nonzero;"/>
            </g>
            <g transform="matrix(10.8319,0,0,10.8319,803.847,721.914)">
                <path d="M0.431,-0.311L0.439,-0.506L0.43,-0.506L0.3,-0.147L0.17,-0.506L0.161,-0.506L0.169,-0.311L0.169,-0L0.039,-0L0.039,-0.698L0.216,-0.698L0.302,-0.463L0.31,-0.463L0.396,-0.698L0.561,-0.698L0.561,-0L0.431,-0L0.431,-0.311Z" style="fill-opacity:0.25;fill-rule:nonzero;"/>
            </g>
            <g transform="matrix(10.8319,0,0,10.8319,810.888,721.914)">
                <path d="M0.08,-0L0.08,-0.698L0.526,-0.698L0.526,-0.575L0.23,-0.575L0.23,-0.415L0.516,-0.415L0.516,-0.292L0.23,-0.292L0.23,-0.123L0.526,-0.123L0.526,-0L0.08,-0Z" style="fill-opacity:0.25;fill-rule:nonzero;"/>
            </g>
            <g transform="matrix(10.8319,0,0,10.8319,817.929,721.914)">
                <path d="M0.2,-0.464L0.189,-0.464L0.189,-0L0.061,-0L0.061,-0.698L0.241,-0.698L0.4,-0.234L0.411,-0.234L0.411,-0.698L0.539,-0.698L0.539,-0L0.359,-0L0.2,-0.464Z" style="fill-opacity:0.25;fill-rule:nonzero;"/>
            </g>
            <g transform="matrix(10.8319,0,0,10.8319,824.969,721.914)">
                <path d="M0.375,-0.575L0.375,-0L0.225,-0L0.225,-0.575L0.024,-0.575L0.024,-0.698L0.576,-0.698L0.576,-0.575L0.375,-0.575Z" style="fill-opacity:0.25;fill-rule:nonzero;"/>
            </g>
            <g transform="matrix(10.8319,0,0,10.8319,832.01,721.914)">
                <path d="M0.435,-0L0.391,-0.168L0.2,-0.168L0.157,-0L0.005,-0L0.194,-0.698L0.406,-0.698L0.595,-0L0.435,-0ZM0.3,-0.553L0.292,-0.553L0.224,-0.289L0.368,-0.289L0.3,-0.553Z" style="fill-opacity:0.25;fill-rule:nonzero;"/>
            </g>
            <g transform="matrix(10.8319,0,0,10.8319,839.051,721.914)">
                <path d="M0.316,0.012C0.223,0.012 0.154,-0.02 0.109,-0.083C0.064,-0.146 0.041,-0.234 0.041,-0.349C0.041,-0.464 0.064,-0.553 0.109,-0.616C0.154,-0.679 0.223,-0.71 0.316,-0.71C0.352,-0.71 0.384,-0.705 0.411,-0.696C0.439,-0.686 0.463,-0.672 0.483,-0.655C0.503,-0.638 0.52,-0.617 0.533,-0.592C0.546,-0.567 0.556,-0.54 0.563,-0.509L0.423,-0.475C0.419,-0.492 0.414,-0.507 0.409,-0.521C0.404,-0.535 0.397,-0.547 0.389,-0.557C0.38,-0.567 0.37,-0.575 0.358,-0.581C0.345,-0.586 0.33,-0.589 0.313,-0.589C0.272,-0.589 0.244,-0.573 0.227,-0.542C0.21,-0.51 0.201,-0.466 0.201,-0.41L0.201,-0.288C0.201,-0.232 0.21,-0.188 0.227,-0.157C0.244,-0.125 0.272,-0.109 0.313,-0.109C0.348,-0.109 0.373,-0.12 0.389,-0.141C0.404,-0.162 0.416,-0.19 0.423,-0.223L0.563,-0.189C0.556,-0.158 0.546,-0.131 0.533,-0.106C0.52,-0.081 0.503,-0.06 0.483,-0.043C0.463,-0.025 0.439,-0.011 0.411,-0.002C0.384,0.007 0.352,0.012 0.316,0.012Z" style="fill-opacity:0.25;fill-rule:nonzero;"/>
            </g>
            <g transform="matrix(10.8319,0,0,10.8319,846.092,721.914)">
                <path d="M0.08,-0L0.08,-0.698L0.526,-0.698L0.526,-0.575L0.23,-0.575L0.23,-0.415L0.516,-0.415L0.516,-0.292L0.23,-0.292L0.23,-0.123L0.526,-0.123L0.526,-0L0.08,-0Z" style="fill-opacity:0.25;fill-rule:nonzero;"/>
            </g>
        </g>
        <g transform="matrix(1.38479,0,0,1.38479,232.264,119.108)">
            <g transform="matrix(10.8319,0,0,10.8319,775.684,711.082)">
                <path d="M0.3,0.012C0.207,0.012 0.138,-0.02 0.094,-0.083C0.049,-0.146 0.027,-0.235 0.027,-0.349C0.027,-0.463 0.049,-0.552 0.094,-0.615C0.138,-0.678 0.207,-0.71 0.3,-0.71C0.393,-0.71 0.462,-0.678 0.506,-0.615C0.551,-0.552 0.573,-0.463 0.573,-0.349C0.573,-0.235 0.551,-0.146 0.506,-0.083C0.462,-0.02 0.393,0.012 0.3,0.012ZM0.3,-0.109C0.343,-0.109 0.372,-0.125 0.389,-0.157C0.405,-0.188 0.413,-0.232 0.413,-0.289L0.413,-0.41C0.413,-0.466 0.405,-0.51 0.389,-0.542C0.372,-0.573 0.343,-0.589 0.3,-0.589C0.257,-0.589 0.228,-0.573 0.212,-0.542C0.195,-0.51 0.187,-0.466 0.187,-0.41L0.187,-0.288C0.187,-0.232 0.195,-0.188 0.212,-0.157C0.228,-0.125 0.257,-0.109 0.3,-0.109Z" style="fill-opacity:0.25;fill-rule:nonzero;"/>
            </g>
            <g transform="matrix(10.8319,0,0,10.8319,782.725,711.082)">
                <path d="M0.064,-0.698L0.289,-0.698C0.383,-0.698 0.453,-0.668 0.498,-0.608C0.543,-0.548 0.566,-0.462 0.566,-0.349C0.566,-0.236 0.543,-0.15 0.498,-0.09C0.453,-0.03 0.383,-0 0.289,-0L0.064,-0L0.064,-0.698ZM0.279,-0.118C0.324,-0.118 0.356,-0.132 0.377,-0.161C0.398,-0.19 0.408,-0.231 0.408,-0.286L0.408,-0.413C0.408,-0.467 0.398,-0.508 0.377,-0.537C0.356,-0.566 0.324,-0.58 0.279,-0.58L0.212,-0.58L0.212,-0.118L0.279,-0.118Z" style="fill-opacity:0.25;fill-rule:nonzero;"/>
            </g>
            <g transform="matrix(10.8319,0,0,10.8319,789.766,711.082)">
                <path d="M0.431,-0.311L0.439,-0.506L0.43,-0.506L0.3,-0.147L0.17,-0.506L0.161,-0.506L0.169,-0.311L0.169,-0L0.039,-0L0.039,-0.698L0.216,-0.698L0.302,-0.463L0.31,-0.463L0.396,-0.698L0.561,-0.698L0.561,-0L0.431,-0L0.431,-0.311Z" style="fill-opacity:0.25;fill-rule:nonzero;"/>
            </g>
            <g transform="matrix(10.8319,0,0,10.8319,796.806,711.082)">
                <path d="M0.08,-0L0.08,-0.698L0.526,-0.698L0.526,-0.575L0.23,-0.575L0.23,-0.415L0.516,-0.415L0.516,-0.292L0.23,-0.292L0.23,-0.123L0.526,-0.123L0.526,-0L0.08,-0ZM0.241,-0.748L0.109,-0.907L0.184,-0.965L0.305,-0.85L0.426,-0.965L0.497,-0.907L0.365,-0.748L0.241,-0.748Z" style="fill-opacity:0.25;fill-rule:nonzero;"/>
            </g>
            <g transform="matrix(10.8319,0,0,10.8319,803.847,711.082)">
                <path d="M0.2,-0.464L0.189,-0.464L0.189,-0L0.061,-0L0.061,-0.698L0.241,-0.698L0.4,-0.234L0.411,-0.234L0.411,-0.698L0.539,-0.698L0.539,-0L0.359,-0L0.2,-0.464Z" style="fill-opacity:0.25;fill-rule:nonzero;"/>
            </g>
            <g transform="matrix(10.8319,0,0,10.8319,810.888,711.082)">
                <path d="M0.225,-0L0.225,-0.247L0.004,-0.698L0.171,-0.698L0.245,-0.536L0.299,-0.399L0.307,-0.399L0.361,-0.536L0.435,-0.698L0.596,-0.698L0.375,-0.247L0.375,-0L0.225,-0Z" style="fill-opacity:0.25;fill-rule:nonzero;"/>
            </g>
            <g transform="matrix(10.8319,0,0,10.8319,817.929,711.082)">
                <path d="M0.227,-0.174L0.417,-0.174L0.28,0.151L0.17,0.151L0.227,-0.174Z" style="fill-opacity:0.25;fill-rule:nonzero;"/>
            </g>
            <g transform="matrix(10.8319,0,0,10.8319,832.01,711.082)">
                <path d="M0.2,-0.464L0.189,-0.464L0.189,-0L0.061,-0L0.061,-0.698L0.241,-0.698L0.4,-0.234L0.411,-0.234L0.411,-0.698L0.539,-0.698L0.539,-0L0.359,-0L0.2,-0.464Z" style="fill-opacity:0.25;fill-rule:nonzero;"/>
            </g>
            <g transform="matrix(10.8319,0,0,10.8319,839.051,711.082)">
                <path d="M0.435,-0L0.391,-0.168L0.2,-0.168L0.157,-0L0.005,-0L0.194,-0.698L0.406,-0.698L0.595,-0L0.435,-0ZM0.3,-0.553L0.292,-0.553L0.224,-0.289L0.368,-0.289L0.3,-0.553ZM0.316,-0.74L0.228,-0.783L0.327,-0.977L0.45,-0.916L0.316,-0.74Z" style="fill-opacity:0.25;fill-rule:nonzero;"/>
            </g>
            <g transform="matrix(10.8319,0,0,10.8319,846.092,711.082)">
                <path d="M0.28,-0.291L0.218,-0.204L0.218,-0L0.068,-0L0.068,-0.698L0.218,-0.698L0.218,-0.406L0.226,-0.406L0.302,-0.522L0.425,-0.698L0.593,-0.698L0.384,-0.403L0.603,-0L0.434,-0L0.28,-0.291Z" style="fill-opacity:0.25;fill-rule:nonzero;"/>
            </g>
            <g transform="matrix(10.8319,0,0,10.8319,853.132,711.082)">
                <path d="M0.205,-0.698L0.205,-0.256C0.205,-0.234 0.206,-0.214 0.207,-0.196C0.209,-0.177 0.213,-0.162 0.22,-0.149C0.226,-0.136 0.235,-0.127 0.248,-0.119C0.261,-0.113 0.278,-0.109 0.3,-0.109C0.322,-0.109 0.339,-0.113 0.352,-0.119C0.365,-0.127 0.374,-0.136 0.381,-0.149C0.387,-0.162 0.391,-0.177 0.393,-0.196C0.394,-0.214 0.395,-0.234 0.395,-0.256L0.395,-0.698L0.545,-0.698L0.545,-0.276C0.545,-0.228 0.542,-0.186 0.536,-0.15C0.529,-0.114 0.517,-0.084 0.499,-0.06C0.481,-0.036 0.456,-0.018 0.424,-0.006C0.392,0.006 0.351,0.012 0.3,0.012C0.249,0.012 0.208,0.006 0.176,-0.006C0.144,-0.018 0.119,-0.036 0.101,-0.06C0.083,-0.084 0.071,-0.114 0.065,-0.15C0.058,-0.186 0.055,-0.228 0.055,-0.276L0.055,-0.698L0.205,-0.698Z" style="fill-opacity:0.25;fill-rule:nonzero;"/>
            </g>
            <g transform="matrix(10.8319,0,0,10.8319,860.173,711.082)">
                <path d="M0.076,-0L0.076,-0.698L0.346,-0.698C0.38,-0.698 0.41,-0.693 0.437,-0.683C0.464,-0.672 0.486,-0.657 0.504,-0.638C0.523,-0.619 0.537,-0.595 0.546,-0.568C0.555,-0.541 0.56,-0.51 0.56,-0.476C0.56,-0.442 0.555,-0.411 0.546,-0.384C0.537,-0.357 0.523,-0.333 0.504,-0.314C0.486,-0.295 0.464,-0.28 0.437,-0.27C0.41,-0.259 0.38,-0.254 0.346,-0.254L0.227,-0.254L0.227,-0L0.076,-0ZM0.227,-0.375L0.308,-0.375C0.343,-0.375 0.368,-0.382 0.382,-0.395C0.395,-0.408 0.402,-0.43 0.402,-0.461L0.402,-0.491C0.402,-0.522 0.395,-0.544 0.382,-0.557C0.368,-0.57 0.343,-0.577 0.308,-0.577L0.227,-0.577L0.227,-0.375Z" style="fill-opacity:0.25;fill-rule:nonzero;"/>
            </g>
            <g transform="matrix(10.8319,0,0,10.8319,775.684,721.914)">
                <path d="M0.375,-0.575L0.375,-0L0.225,-0L0.225,-0.575L0.024,-0.575L0.024,-0.698L0.576,-0.698L0.576,-0.575L0.375,-0.575Z" style="fill-opacity:0.25;fill-rule:nonzero;"/>
            </g>
            <g transform="matrix(10.8319,0,0,10.8319,782.725,721.914)">
                <path d="M0.075,-0L0.075,-0.111L0.225,-0.111L0.225,-0.587L0.075,-0.587L0.075,-0.698L0.525,-0.698L0.525,-0.587L0.375,-0.587L0.375,-0.111L0.525,-0.111L0.525,-0L0.075,-0Z" style="fill-opacity:0.25;fill-rule:nonzero;"/>
            </g>
            <g transform="matrix(10.8319,0,0,10.8319,789.766,721.914)">
                <path d="M0.289,0.012C0.23,0.012 0.179,0.002 0.136,-0.017C0.093,-0.036 0.058,-0.062 0.031,-0.095L0.118,-0.191C0.143,-0.163 0.171,-0.142 0.202,-0.129C0.232,-0.116 0.263,-0.109 0.294,-0.109C0.33,-0.109 0.357,-0.117 0.376,-0.133C0.395,-0.149 0.404,-0.173 0.404,-0.203C0.404,-0.228 0.397,-0.247 0.383,-0.259C0.368,-0.272 0.344,-0.281 0.31,-0.287L0.237,-0.299C0.174,-0.309 0.129,-0.332 0.101,-0.368C0.073,-0.404 0.059,-0.447 0.059,-0.498C0.059,-0.566 0.081,-0.618 0.125,-0.655C0.169,-0.692 0.231,-0.71 0.31,-0.71C0.364,-0.71 0.411,-0.702 0.451,-0.685C0.491,-0.669 0.523,-0.646 0.548,-0.618L0.463,-0.523C0.444,-0.544 0.422,-0.56 0.397,-0.572C0.372,-0.583 0.343,-0.589 0.311,-0.589C0.244,-0.589 0.21,-0.561 0.21,-0.505C0.21,-0.481 0.218,-0.463 0.233,-0.451C0.248,-0.439 0.272,-0.43 0.306,-0.424L0.379,-0.411C0.436,-0.401 0.479,-0.379 0.51,-0.347C0.541,-0.314 0.556,-0.27 0.556,-0.215C0.556,-0.182 0.55,-0.152 0.539,-0.124C0.528,-0.097 0.511,-0.073 0.488,-0.052C0.465,-0.032 0.438,-0.016 0.405,-0.005C0.372,0.006 0.333,0.012 0.289,0.012Z" style="fill-opacity:0.25;fill-rule:nonzero;"/>
            </g>
            <g transform="matrix(10.8319,0,0,10.8319,796.806,721.914)">
                <path d="M0.28,-0.291L0.218,-0.204L0.218,-0L0.068,-0L0.068,-0.698L0.218,-0.698L0.218,-0.406L0.226,-0.406L0.302,-0.522L0.425,-0.698L0.593,-0.698L0.384,-0.403L0.603,-0L0.434,-0L0.28,-0.291Z" style="fill-opacity:0.25;fill-rule:nonzero;"/>
            </g>
        </g>
        <g transform="matrix(1.38479,0,0,1.38479,246.084,95.1139)">
            <g transform="matrix(19,0,0,19,765.483,711.082)">
                <path d="M0.431,-0.311L0.439,-0.506L0.43,-0.506L0.3,-0.147L0.17,-0.506L0.161,-0.506L0.169,-0.311L0.169,-0L0.039,-0L0.039,-0.698L0.216,-0.698L0.302,-0.463L0.31,-0.463L0.396,-0.698L0.561,-0.698L0.561,-0L0.431,-0L0.431,-0.311Z" style="fill-opacity:0.25;fill-rule:nonzero;"/>
            </g>
            <g transform="matrix(19,0,0,19,777.833,711.082)">
                <path d="M0.435,-0L0.391,-0.168L0.2,-0.168L0.157,-0L0.005,-0L0.194,-0.698L0.406,-0.698L0.595,-0L0.435,-0ZM0.3,-0.553L0.292,-0.553L0.224,-0.289L0.368,-0.289L0.3,-0.553Z" style="fill-opacity:0.25;fill-rule:nonzero;"/>
            </g>
            <g transform="matrix(19,0,0,19,790.183,711.082)">
                <path d="M0.375,-0.575L0.375,-0L0.225,-0L0.225,-0.575L0.024,-0.575L0.024,-0.698L0.576,-0.698L0.576,-0.575L0.375,-0.575Z" style="fill-opacity:0.25;fill-rule:nonzero;"/>
            </g>
            <g transform="matrix(19,0,0,19,802.533,711.082)">
                <path d="M0.08,-0L0.08,-0.698L0.526,-0.698L0.526,-0.575L0.23,-0.575L0.23,-0.415L0.516,-0.415L0.516,-0.292L0.23,-0.292L0.23,-0.123L0.526,-0.123L0.526,-0L0.08,-0Z" style="fill-opacity:0.25;fill-rule:nonzero;"/>
            </g>
            <g transform="matrix(19,0,0,19,814.883,711.082)">
                <path d="M0.224,-0L0.076,-0L0.076,-0.698L0.346,-0.698C0.38,-0.698 0.41,-0.693 0.437,-0.683C0.464,-0.672 0.486,-0.657 0.504,-0.638C0.523,-0.619 0.537,-0.595 0.546,-0.568C0.555,-0.541 0.56,-0.51 0.56,-0.476C0.56,-0.427 0.549,-0.384 0.528,-0.349C0.507,-0.314 0.476,-0.29 0.437,-0.279L0.574,-0L0.41,-0L0.293,-0.259L0.224,-0.259L0.224,-0ZM0.31,-0.375C0.345,-0.375 0.37,-0.382 0.384,-0.395C0.397,-0.408 0.404,-0.43 0.404,-0.461L0.404,-0.491C0.404,-0.522 0.397,-0.544 0.384,-0.557C0.37,-0.57 0.345,-0.577 0.31,-0.577L0.224,-0.577L0.224,-0.375L0.31,-0.375Z" style="fill-opacity:0.25;fill-rule:nonzero;"/>
            </g>
            <g transform="matrix(19,0,0,19,827.233,711.082)">
                <path d="M0.075,-0L0.075,-0.111L0.225,-0.111L0.225,-0.587L0.075,-0.587L0.075,-0.698L0.525,-0.698L0.525,-0.587L0.375,-0.587L0.375,-0.111L0.525,-0.111L0.525,-0L0.075,-0Z" style="fill-opacity:0.25;fill-rule:nonzero;"/>
            </g>
            <g transform="matrix(19,0,0,19,839.583,711.082)">
                <path d="M0.435,-0L0.391,-0.168L0.2,-0.168L0.157,-0L0.005,-0L0.194,-0.698L0.406,-0.698L0.595,-0L0.435,-0ZM0.3,-0.553L0.292,-0.553L0.224,-0.289L0.368,-0.289L0.3,-0.553ZM0.316,-0.74L0.228,-0.783L0.327,-0.977L0.45,-0.916L0.316,-0.74Z" style="fill-opacity:0.25;fill-rule:nonzero;"/>
            </g>
            <g transform="matrix(19,0,0,19,851.933,711.082)">
                <path d="M0.092,-0L0.092,-0.698L0.243,-0.698L0.243,-0.123L0.543,-0.123L0.543,-0L0.092,-0Z" style="fill-opacity:0.25;fill-rule:nonzero;"/>
            </g>
        </g>
        <g transform="matrix(1.38479,0,0,1.38479,12.6754,348.82)">
            <g transform="matrix(19,0,0,19,753.133,711.082)">
                <path d="M0.3,0.012C0.207,0.012 0.138,-0.02 0.094,-0.083C0.049,-0.146 0.027,-0.235 0.027,-0.349C0.027,-0.463 0.049,-0.552 0.094,-0.615C0.138,-0.678 0.207,-0.71 0.3,-0.71C0.393,-0.71 0.462,-0.678 0.506,-0.615C0.551,-0.552 0.573,-0.463 0.573,-0.349C0.573,-0.235 0.551,-0.146 0.506,-0.083C0.462,-0.02 0.393,0.012 0.3,0.012ZM0.3,-0.109C0.343,-0.109 0.372,-0.125 0.389,-0.157C0.405,-0.188 0.413,-0.232 0.413,-0.289L0.413,-0.41C0.413,-0.466 0.405,-0.51 0.389,-0.542C0.372,-0.573 0.343,-0.589 0.3,-0.589C0.257,-0.589 0.228,-0.573 0.212,-0.542C0.195,-0.51 0.187,-0.466 0.187,-0.41L0.187,-0.288C0.187,-0.232 0.195,-0.188 0.212,-0.157C0.228,-0.125 0.257,-0.109 0.3,-0.109Z" style="fill-opacity:0.25;fill-rule:nonzero;"/>
            </g>
            <g transform="matrix(19,0,0,19,765.483,711.082)">
                <path d="M0.224,-0L0.076,-0L0.076,-0.698L0.346,-0.698C0.38,-0.698 0.41,-0.693 0.437,-0.683C0.464,-0.672 0.486,-0.657 0.504,-0.638C0.523,-0.619 0.537,-0.595 0.546,-0.568C0.555,-0.541 0.56,-0.51 0.56,-0.476C0.56,-0.427 0.549,-0.384 0.528,-0.349C0.507,-0.314 0.476,-0.29 0.437,-0.279L0.574,-0L0.41,-0L0.293,-0.259L0.224,-0.259L0.224,-0ZM0.31,-0.375C0.345,-0.375 0.37,-0.382 0.384,-0.395C0.397,-0.408 0.404,-0.43 0.404,-0.461L0.404,-0.491C0.404,-0.522 0.397,-0.544 0.384,-0.557C0.37,-0.57 0.345,-0.577 0.31,-0.577L0.224,-0.577L0.224,-0.375L0.31,-0.375Z" style="fill-opacity:0.25;fill-rule:nonzero;"/>
            </g>
            <g transform="matrix(19,0,0,19,777.833,711.082)">
                <path d="M0.411,-0.099L0.402,-0.099C0.396,-0.084 0.389,-0.07 0.38,-0.057C0.371,-0.044 0.361,-0.032 0.348,-0.021C0.335,-0.011 0.321,-0.003 0.304,0.003C0.286,0.009 0.267,0.012 0.246,0.012C0.212,0.012 0.182,0.004 0.156,-0.012C0.129,-0.028 0.107,-0.051 0.089,-0.082C0.071,-0.113 0.058,-0.15 0.049,-0.194C0.04,-0.238 0.035,-0.288 0.035,-0.343C0.035,-0.462 0.057,-0.553 0.1,-0.616C0.143,-0.679 0.21,-0.71 0.301,-0.71C0.337,-0.71 0.369,-0.705 0.396,-0.696C0.423,-0.686 0.447,-0.672 0.467,-0.655C0.486,-0.637 0.502,-0.616 0.515,-0.591C0.528,-0.566 0.538,-0.539 0.545,-0.509L0.405,-0.475C0.401,-0.49 0.397,-0.504 0.392,-0.518C0.387,-0.531 0.38,-0.543 0.372,-0.554C0.364,-0.565 0.354,-0.573 0.342,-0.58C0.33,-0.586 0.315,-0.589 0.298,-0.589C0.26,-0.589 0.233,-0.573 0.218,-0.542C0.202,-0.511 0.194,-0.467 0.194,-0.41L0.194,-0.296C0.194,-0.239 0.203,-0.194 0.22,-0.16C0.236,-0.126 0.267,-0.109 0.31,-0.109C0.344,-0.109 0.369,-0.119 0.386,-0.139C0.403,-0.159 0.411,-0.185 0.411,-0.216L0.411,-0.267L0.292,-0.267L0.292,-0.373L0.545,-0.373L0.545,-0L0.411,-0L0.411,-0.099Z" style="fill-opacity:0.25;fill-rule:nonzero;"/>
            </g>
            <g transform="matrix(19,0,0,19,790.183,711.082)">
                <path d="M0.435,-0L0.391,-0.168L0.2,-0.168L0.157,-0L0.005,-0L0.194,-0.698L0.406,-0.698L0.595,-0L0.435,-0ZM0.3,-0.553L0.292,-0.553L0.224,-0.289L0.368,-0.289L0.3,-0.553Z" style="fill-opacity:0.25;fill-rule:nonzero;"/>
            </g>
            <g transform="matrix(19,0,0,19,802.533,711.082)">
                <path d="M0.2,-0.464L0.189,-0.464L0.189,-0L0.061,-0L0.061,-0.698L0.241,-0.698L0.4,-0.234L0.411,-0.234L0.411,-0.698L0.539,-0.698L0.539,-0L0.359,-0L0.2,-0.464Z" style="fill-opacity:0.25;fill-rule:nonzero;"/>
            </g>
            <g transform="matrix(19,0,0,19,814.883,711.082)">
                <path d="M0.075,-0L0.075,-0.111L0.225,-0.111L0.225,-0.587L0.075,-0.587L0.075,-0.698L0.525,-0.698L0.525,-0.587L0.375,-0.587L0.375,-0.111L0.525,-0.111L0.525,-0L0.075,-0Z" style="fill-opacity:0.25;fill-rule:nonzero;"/>
            </g>
            <g transform="matrix(19,0,0,19,827.233,711.082)">
                <path d="M0.551,-0L0.048,-0L0.048,-0.131L0.373,-0.575L0.058,-0.575L0.058,-0.698L0.541,-0.698L0.541,-0.567L0.216,-0.123L0.551,-0.123L0.551,-0Z" style="fill-opacity:0.25;fill-rule:nonzero;"/>
            </g>
            <g transform="matrix(19,0,0,19,839.583,711.082)">
                <path d="M0.435,-0L0.391,-0.168L0.2,-0.168L0.157,-0L0.005,-0L0.194,-0.698L0.406,-0.698L0.595,-0L0.435,-0ZM0.3,-0.553L0.292,-0.553L0.224,-0.289L0.368,-0.289L0.3,-0.553Z" style="fill-opacity:0.25;fill-rule:nonzero;"/>
            </g>
            <g transform="matrix(19,0,0,19,851.933,711.082)">
                <path d="M0.316,0.012C0.223,0.012 0.154,-0.02 0.109,-0.083C0.064,-0.146 0.041,-0.234 0.041,-0.349C0.041,-0.464 0.064,-0.553 0.109,-0.616C0.154,-0.679 0.223,-0.71 0.316,-0.71C0.352,-0.71 0.384,-0.705 0.411,-0.696C0.439,-0.686 0.463,-0.672 0.483,-0.655C0.503,-0.638 0.52,-0.617 0.533,-0.592C0.546,-0.567 0.556,-0.54 0.563,-0.509L0.423,-0.475C0.419,-0.492 0.414,-0.507 0.409,-0.521C0.404,-0.535 0.397,-0.547 0.389,-0.557C0.38,-0.567 0.37,-0.575 0.358,-0.581C0.345,-0.586 0.33,-0.589 0.313,-0.589C0.272,-0.589 0.244,-0.573 0.227,-0.542C0.21,-0.51 0.201,-0.466 0.201,-0.41L0.201,-0.288C0.201,-0.232 0.21,-0.188 0.227,-0.157C0.244,-0.125 0.272,-0.109 0.313,-0.109C0.348,-0.109 0.373,-0.12 0.389,-0.141C0.404,-0.162 0.416,-0.19 0.423,-0.223L0.563,-0.189C0.556,-0.158 0.546,-0.131 0.533,-0.106C0.52,-0.081 0.503,-0.06 0.483,-0.043C0.463,-0.025 0.439,-0.011 0.411,-0.002C0.384,0.007 0.352,0.012 0.316,0.012Z" style="fill-opacity:0.25;fill-rule:nonzero;"/>
            </g>
            <g transform="matrix(19,0,0,19,864.283,711.082)">
                <path d="M0.08,-0L0.08,-0.698L0.526,-0.698L0.526,-0.575L0.23,-0.575L0.23,-0.415L0.516,-0.415L0.516,-0.292L0.23,-0.292L0.23,-0.123L0.526,-0.123L0.526,-0L0.08,-0Z" style="fill-opacity:0.25;fill-rule:nonzero;"/>
            </g>
        </g>
        <g transform="matrix(1.38479,0,0,1.38479,-2.51202,-298.705)">
            <g transform="matrix(19,0,0,19,752.658,711.082)">
                <path d="M0.224,-0L0.076,-0L0.076,-0.698L0.346,-0.698C0.38,-0.698 0.41,-0.693 0.437,-0.683C0.464,-0.672 0.486,-0.657 0.504,-0.638C0.523,-0.619 0.537,-0.595 0.546,-0.568C0.555,-0.541 0.56,-0.51 0.56,-0.476C0.56,-0.427 0.549,-0.384 0.528,-0.349C0.507,-0.314 0.476,-0.29 0.437,-0.279L0.574,-0L0.41,-0L0.293,-0.259L0.224,-0.259L0.224,-0ZM0.31,-0.375C0.345,-0.375 0.37,-0.382 0.384,-0.395C0.397,-0.408 0.404,-0.43 0.404,-0.461L0.404,-0.491C0.404,-0.522 0.397,-0.544 0.384,-0.557C0.37,-0.57 0.345,-0.577 0.31,-0.577L0.224,-0.577L0.224,-0.375L0.31,-0.375Z" style="fill-opacity:0.25;fill-rule:nonzero;"/>
            </g>
            <g transform="matrix(19,0,0,19,765.008,711.082)">
                <path d="M0.08,-0L0.08,-0.698L0.526,-0.698L0.526,-0.575L0.23,-0.575L0.23,-0.415L0.516,-0.415L0.516,-0.292L0.23,-0.292L0.23,-0.123L0.526,-0.123L0.526,-0L0.08,-0Z" style="fill-opacity:0.25;fill-rule:nonzero;"/>
            </g>
            <g transform="matrix(19,0,0,19,777.358,711.082)">
                <path d="M0.551,-0L0.048,-0L0.048,-0.131L0.373,-0.575L0.058,-0.575L0.058,-0.698L0.541,-0.698L0.541,-0.567L0.216,-0.123L0.551,-0.123L0.551,-0ZM0.238,-0.748L0.106,-0.907L0.181,-0.965L0.302,-0.85L0.423,-0.965L0.494,-0.907L0.362,-0.748L0.238,-0.748Z" style="fill-opacity:0.25;fill-rule:nonzero;"/>
            </g>
            <g transform="matrix(19,0,0,19,789.708,711.082)">
                <path d="M0.075,-0L0.075,-0.111L0.225,-0.111L0.225,-0.587L0.075,-0.587L0.075,-0.698L0.525,-0.698L0.525,-0.587L0.375,-0.587L0.375,-0.111L0.525,-0.111L0.525,-0L0.075,-0Z" style="fill-opacity:0.25;fill-rule:nonzero;"/>
            </g>
            <g transform="matrix(19,0,0,19,802.058,711.082)">
                <path d="M0.431,-0.311L0.439,-0.506L0.43,-0.506L0.3,-0.147L0.17,-0.506L0.161,-0.506L0.169,-0.311L0.169,-0L0.039,-0L0.039,-0.698L0.216,-0.698L0.302,-0.463L0.31,-0.463L0.396,-0.698L0.561,-0.698L0.561,-0L0.431,-0L0.431,-0.311Z" style="fill-opacity:0.25;fill-rule:nonzero;"/>
            </g>
            <g transform="matrix(19,0,0,19,752.658,730.082)">
                <path d="M0.064,-0.698L0.289,-0.698C0.383,-0.698 0.453,-0.668 0.498,-0.608C0.543,-0.548 0.566,-0.462 0.566,-0.349C0.566,-0.236 0.543,-0.15 0.498,-0.09C0.453,-0.03 0.383,-0 0.289,-0L0.064,-0L0.064,-0.698ZM0.279,-0.118C0.324,-0.118 0.356,-0.132 0.377,-0.161C0.398,-0.19 0.408,-0.231 0.408,-0.286L0.408,-0.413C0.408,-0.467 0.398,-0.508 0.377,-0.537C0.356,-0.566 0.324,-0.58 0.279,-0.58L0.212,-0.58L0.212,-0.118L0.279,-0.118Z" style="fill-opacity:0.25;fill-rule:nonzero;"/>
            </g>
            <g transform="matrix(19,0,0,19,765.008,730.082)">
                <path d="M0.2,-0.464L0.189,-0.464L0.189,-0L0.061,-0L0.061,-0.698L0.241,-0.698L0.4,-0.234L0.411,-0.234L0.411,-0.698L0.539,-0.698L0.539,-0L0.359,-0L0.2,-0.464Z" style="fill-opacity:0.25;fill-rule:nonzero;"/>
            </g>
            <g transform="matrix(19,0,0,19,777.358,730.082)">
                <path d="M0.08,-0L0.08,-0.698L0.526,-0.698L0.526,-0.575L0.23,-0.575L0.23,-0.415L0.516,-0.415L0.516,-0.292L0.23,-0.292L0.23,-0.123L0.526,-0.123L0.526,-0L0.08,-0Z" style="fill-opacity:0.25;fill-rule:nonzero;"/>
            </g>
        </g>
        <g transform="matrix(1.38479,0,0,1.38479,-18.2025,374.973)">
            <g transform="matrix(10.8319,0,0,10.8319,775.684,711.082)">
                <path d="M0.194,-0L0.009,-0.698L0.176,-0.698L0.258,-0.343L0.299,-0.142L0.307,-0.142L0.349,-0.343L0.432,-0.698L0.591,-0.698L0.406,-0L0.194,-0Z" style="fill-opacity:0.25;fill-rule:nonzero;"/>
            </g>
            <g transform="matrix(10.8319,0,0,10.8319,782.725,711.082)">
                <path d="M0.08,-0L0.08,-0.698L0.526,-0.698L0.526,-0.575L0.23,-0.575L0.23,-0.415L0.516,-0.415L0.516,-0.292L0.23,-0.292L0.23,-0.123L0.526,-0.123L0.526,-0L0.08,-0Z" style="fill-opacity:0.25;fill-rule:nonzero;"/>
            </g>
            <g transform="matrix(10.8319,0,0,10.8319,789.766,711.082)">
                <path d="M0.064,-0.698L0.289,-0.698C0.383,-0.698 0.453,-0.668 0.498,-0.608C0.543,-0.548 0.566,-0.462 0.566,-0.349C0.566,-0.236 0.543,-0.15 0.498,-0.09C0.453,-0.03 0.383,-0 0.289,-0L0.064,-0L0.064,-0.698ZM0.279,-0.118C0.324,-0.118 0.356,-0.132 0.377,-0.161C0.398,-0.19 0.408,-0.231 0.408,-0.286L0.408,-0.413C0.408,-0.467 0.398,-0.508 0.377,-0.537C0.356,-0.566 0.324,-0.58 0.279,-0.58L0.212,-0.58L0.212,-0.118L0.279,-0.118Z" style="fill-opacity:0.25;fill-rule:nonzero;"/>
            </g>
            <g transform="matrix(10.8319,0,0,10.8319,796.806,711.082)">
                <path d="M0.08,-0L0.08,-0.698L0.526,-0.698L0.526,-0.575L0.23,-0.575L0.23,-0.415L0.516,-0.415L0.516,-0.292L0.23,-0.292L0.23,-0.123L0.526,-0.123L0.526,-0L0.08,-0Z" style="fill-opacity:0.25;fill-rule:nonzero;"/>
            </g>
            <g transform="matrix(10.8319,0,0,10.8319,803.847,711.082)">
                <path d="M0.2,-0.464L0.189,-0.464L0.189,-0L0.061,-0L0.061,-0.698L0.241,-0.698L0.4,-0.234L0.411,-0.234L0.411,-0.698L0.539,-0.698L0.539,-0L0.359,-0L0.2,-0.464Z" style="fill-opacity:0.25;fill-rule:nonzero;"/>
            </g>
            <g transform="matrix(10.8319,0,0,10.8319,810.888,711.082)">
                <path d="M0.075,-0L0.075,-0.111L0.225,-0.111L0.225,-0.587L0.075,-0.587L0.075,-0.698L0.525,-0.698L0.525,-0.587L0.375,-0.587L0.375,-0.111L0.525,-0.111L0.525,-0L0.075,-0ZM0.316,-0.74L0.228,-0.783L0.327,-0.977L0.45,-0.916L0.316,-0.74Z" style="fill-opacity:0.25;fill-rule:nonzero;"/>
            </g>
            <g transform="matrix(10.8319,0,0,10.8319,817.929,711.082)">
                <path d="M0.227,-0.174L0.417,-0.174L0.28,0.151L0.17,0.151L0.227,-0.174Z" style="fill-opacity:0.25;fill-rule:nonzero;"/>
            </g>
            <g transform="matrix(10.8319,0,0,10.8319,832.01,711.082)">
                <path d="M0.08,-0L0.08,-0.698L0.543,-0.698L0.543,-0.575L0.23,-0.575L0.23,-0.415L0.51,-0.415L0.51,-0.292L0.23,-0.292L0.23,-0L0.08,-0Z" style="fill-opacity:0.25;fill-rule:nonzero;"/>
            </g>
            <g transform="matrix(10.8319,0,0,10.8319,839.051,711.082)">
                <path d="M0.075,-0L0.075,-0.111L0.225,-0.111L0.225,-0.587L0.075,-0.587L0.075,-0.698L0.525,-0.698L0.525,-0.587L0.375,-0.587L0.375,-0.111L0.525,-0.111L0.525,-0L0.075,-0Z" style="fill-opacity:0.25;fill-rule:nonzero;"/>
            </g>
            <g transform="matrix(10.8319,0,0,10.8319,846.092,711.082)">
                <path d="M0.2,-0.464L0.189,-0.464L0.189,-0L0.061,-0L0.061,-0.698L0.241,-0.698L0.4,-0.234L0.411,-0.234L0.411,-0.698L0.539,-0.698L0.539,-0L0.359,-0L0.2,-0.464Z" style="fill-opacity:0.25;fill-rule:nonzero;"/>
            </g>
            <g transform="matrix(10.8319,0,0,10.8319,853.132,711.082)">
                <path d="M0.435,-0L0.391,-0.168L0.2,-0.168L0.157,-0L0.005,-0L0.194,-0.698L0.406,-0.698L0.595,-0L0.435,-0ZM0.3,-0.553L0.292,-0.553L0.224,-0.289L0.368,-0.289L0.3,-0.553Z" style="fill-opacity:0.25;fill-rule:nonzero;"/>
            </g>
            <g transform="matrix(10.8319,0,0,10.8319,860.173,711.082)">
                <path d="M0.2,-0.464L0.189,-0.464L0.189,-0L0.061,-0L0.061,-0.698L0.241,-0.698L0.4,-0.234L0.411,-0.234L0.411,-0.698L0.539,-0.698L0.539,-0L0.359,-0L0.2,-0.464Z" style="fill-opacity:0.25;fill-rule:nonzero;"/>
            </g>
            <g transform="matrix(10.8319,0,0,10.8319,867.214,711.082)">
                <path d="M0.316,0.012C0.223,0.012 0.154,-0.02 0.109,-0.083C0.064,-0.146 0.041,-0.234 0.041,-0.349C0.041,-0.464 0.064,-0.553 0.109,-0.616C0.154,-0.679 0.223,-0.71 0.316,-0.71C0.352,-0.71 0.384,-0.705 0.411,-0.696C0.439,-0.686 0.463,-0.672 0.483,-0.655C0.503,-0.638 0.52,-0.617 0.533,-0.592C0.546,-0.567 0.556,-0.54 0.563,-0.509L0.423,-0.475C0.419,-0.492 0.414,-0.507 0.409,-0.521C0.404,-0.535 0.397,-0.547 0.389,-0.557C0.38,-0.567 0.37,-0.575 0.358,-0.581C0.345,-0.586 0.33,-0.589 0.313,-0.589C0.272,-0.589 0.244,-0.573 0.227,-0.542C0.21,-0.51 0.201,-0.466 0.201,-0.41L0.201,-0.288C0.201,-0.232 0.21,-0.188 0.227,-0.157C0.244,-0.125 0.272,-0.109 0.313,-0.109C0.348,-0.109 0.373,-0.12 0.389,-0.141C0.404,-0.162 0.416,-0.19 0.423,-0.223L0.563,-0.189C0.556,-0.158 0.546,-0.131 0.533,-0.106C0.52,-0.081 0.503,-0.06 0.483,-0.043C0.463,-0.025 0.439,-0.011 0.411,-0.002C0.384,0.007 0.352,0.012 0.316,0.012Z" style="fill-opacity:0.25;fill-rule:nonzero;"/>
            </g>
            <g transform="matrix(10.8319,0,0,10.8319,874.255,711.082)">
                <path d="M0.08,-0L0.08,-0.698L0.526,-0.698L0.526,-0.575L0.23,-0.575L0.23,-0.415L0.516,-0.415L0.516,-0.292L0.23,-0.292L0.23,-0.123L0.526,-0.123L0.526,-0L0.08,-0Z" style="fill-opacity:0.25;fill-rule:nonzero;"/>
            </g>
            <g transform="matrix(10.8319,0,0,10.8319,775.684,721.914)">
                <path d="M0.054,-0L0.011,-0.698L0.14,-0.698L0.16,-0.28L0.166,-0.148L0.175,-0.148L0.235,-0.546L0.37,-0.546L0.43,-0.148L0.439,-0.148L0.445,-0.276L0.465,-0.698L0.589,-0.698L0.546,-0L0.356,-0L0.305,-0.385L0.295,-0.385L0.244,-0L0.054,-0Z" style="fill-opacity:0.25;fill-rule:nonzero;"/>
            </g>
            <g transform="matrix(10.8319,0,0,10.8319,782.725,721.914)">
                <path d="M0.08,-0L0.08,-0.698L0.526,-0.698L0.526,-0.575L0.23,-0.575L0.23,-0.415L0.516,-0.415L0.516,-0.292L0.23,-0.292L0.23,-0.123L0.526,-0.123L0.526,-0L0.08,-0Z" style="fill-opacity:0.25;fill-rule:nonzero;"/>
            </g>
            <g transform="matrix(10.8319,0,0,10.8319,789.766,721.914)">
                <path d="M0.077,-0.698L0.322,-0.698C0.391,-0.698 0.443,-0.681 0.48,-0.648C0.516,-0.615 0.534,-0.569 0.534,-0.512C0.534,-0.472 0.524,-0.44 0.504,-0.417C0.485,-0.393 0.457,-0.376 0.42,-0.365L0.42,-0.359C0.463,-0.348 0.497,-0.33 0.521,-0.303C0.544,-0.276 0.556,-0.239 0.556,-0.192C0.556,-0.133 0.538,-0.087 0.5,-0.052C0.464,-0.017 0.412,-0 0.345,-0L0.077,-0L0.077,-0.698ZM0.299,-0.105C0.335,-0.105 0.361,-0.111 0.378,-0.123C0.395,-0.135 0.403,-0.157 0.403,-0.189L0.403,-0.218C0.403,-0.25 0.395,-0.272 0.378,-0.284C0.361,-0.296 0.335,-0.302 0.299,-0.302L0.223,-0.302L0.223,-0.105L0.299,-0.105ZM0.28,-0.402C0.315,-0.402 0.341,-0.408 0.357,-0.42C0.373,-0.431 0.381,-0.452 0.381,-0.483L0.381,-0.513C0.381,-0.544 0.373,-0.565 0.357,-0.576C0.341,-0.587 0.315,-0.593 0.28,-0.593L0.223,-0.593L0.223,-0.402L0.28,-0.402Z" style="fill-opacity:0.25;fill-rule:nonzero;"/>
            </g>
        </g>
        <g transform="matrix(1.38479,0,0,1.38479,-377.461,400.385)">
            <g transform="matrix(10.8319,0,0,10.8319,775.684,711.082)">
                <path d="M0.289,0.012C0.23,0.012 0.179,0.002 0.136,-0.017C0.093,-0.036 0.058,-0.062 0.031,-0.095L0.118,-0.191C0.143,-0.163 0.171,-0.142 0.202,-0.129C0.232,-0.116 0.263,-0.109 0.294,-0.109C0.33,-0.109 0.357,-0.117 0.376,-0.133C0.395,-0.149 0.404,-0.173 0.404,-0.203C0.404,-0.228 0.397,-0.247 0.383,-0.259C0.368,-0.272 0.344,-0.281 0.31,-0.287L0.237,-0.299C0.174,-0.309 0.129,-0.332 0.101,-0.368C0.073,-0.404 0.059,-0.447 0.059,-0.498C0.059,-0.566 0.081,-0.618 0.125,-0.655C0.169,-0.692 0.231,-0.71 0.31,-0.71C0.364,-0.71 0.411,-0.702 0.451,-0.685C0.491,-0.669 0.523,-0.646 0.548,-0.618L0.463,-0.523C0.444,-0.544 0.422,-0.56 0.397,-0.572C0.372,-0.583 0.343,-0.589 0.311,-0.589C0.244,-0.589 0.21,-0.561 0.21,-0.505C0.21,-0.481 0.218,-0.463 0.233,-0.451C0.248,-0.439 0.272,-0.43 0.306,-0.424L0.379,-0.411C0.436,-0.401 0.479,-0.379 0.51,-0.347C0.541,-0.314 0.556,-0.27 0.556,-0.215C0.556,-0.182 0.55,-0.152 0.539,-0.124C0.528,-0.097 0.511,-0.073 0.488,-0.052C0.465,-0.032 0.438,-0.016 0.405,-0.005C0.372,0.006 0.333,0.012 0.289,0.012Z" style="fill-opacity:0.25;fill-rule:nonzero;"/>
            </g>
            <g transform="matrix(10.8319,0,0,10.8319,782.725,711.082)">
                <path d="M0.375,-0.575L0.375,-0L0.225,-0L0.225,-0.575L0.024,-0.575L0.024,-0.698L0.576,-0.698L0.576,-0.575L0.375,-0.575Z" style="fill-opacity:0.25;fill-rule:nonzero;"/>
            </g>
            <g transform="matrix(10.8319,0,0,10.8319,789.766,711.082)">
                <path d="M0.435,-0L0.391,-0.168L0.2,-0.168L0.157,-0L0.005,-0L0.194,-0.698L0.406,-0.698L0.595,-0L0.435,-0ZM0.3,-0.553L0.292,-0.553L0.224,-0.289L0.368,-0.289L0.3,-0.553Z" style="fill-opacity:0.25;fill-rule:nonzero;"/>
            </g>
            <g transform="matrix(10.8319,0,0,10.8319,796.806,711.082)">
                <path d="M0.194,-0L0.009,-0.698L0.176,-0.698L0.258,-0.343L0.299,-0.142L0.307,-0.142L0.349,-0.343L0.432,-0.698L0.591,-0.698L0.406,-0L0.194,-0Z" style="fill-opacity:0.25;fill-rule:nonzero;"/>
            </g>
            <g transform="matrix(10.8319,0,0,10.8319,803.847,711.082)">
                <path d="M0.077,-0.698L0.322,-0.698C0.391,-0.698 0.443,-0.681 0.48,-0.648C0.516,-0.615 0.534,-0.569 0.534,-0.512C0.534,-0.472 0.524,-0.44 0.504,-0.417C0.485,-0.393 0.457,-0.376 0.42,-0.365L0.42,-0.359C0.463,-0.348 0.497,-0.33 0.521,-0.303C0.544,-0.276 0.556,-0.239 0.556,-0.192C0.556,-0.133 0.538,-0.087 0.5,-0.052C0.464,-0.017 0.412,-0 0.345,-0L0.077,-0L0.077,-0.698ZM0.299,-0.105C0.335,-0.105 0.361,-0.111 0.378,-0.123C0.395,-0.135 0.403,-0.157 0.403,-0.189L0.403,-0.218C0.403,-0.25 0.395,-0.272 0.378,-0.284C0.361,-0.296 0.335,-0.302 0.299,-0.302L0.223,-0.302L0.223,-0.105L0.299,-0.105ZM0.28,-0.402C0.315,-0.402 0.341,-0.408 0.357,-0.42C0.373,-0.431 0.381,-0.452 0.381,-0.483L0.381,-0.513C0.381,-0.544 0.373,-0.565 0.357,-0.576C0.341,-0.587 0.315,-0.593 0.28,-0.593L0.223,-0.593L0.223,-0.402L0.28,-0.402Z" style="fill-opacity:0.25;fill-rule:nonzero;"/>
            </g>
            <g transform="matrix(10.8319,0,0,10.8319,810.888,711.082)">
                <path d="M0.225,-0L0.225,-0.247L0.004,-0.698L0.171,-0.698L0.245,-0.536L0.299,-0.399L0.307,-0.399L0.361,-0.536L0.435,-0.698L0.596,-0.698L0.375,-0.247L0.375,-0L0.225,-0Z" style="fill-opacity:0.25;fill-rule:nonzero;"/>
            </g>
            <g transform="matrix(10.8319,0,0,10.8319,817.929,711.082)">
                <path d="M0.227,-0.174L0.417,-0.174L0.28,0.151L0.17,0.151L0.227,-0.174Z" style="fill-opacity:0.25;fill-rule:nonzero;"/>
            </g>
            <g transform="matrix(10.8319,0,0,10.8319,832.01,711.082)">
                <path d="M0.28,-0.291L0.218,-0.204L0.218,-0L0.068,-0L0.068,-0.698L0.218,-0.698L0.218,-0.406L0.226,-0.406L0.302,-0.522L0.425,-0.698L0.593,-0.698L0.384,-0.403L0.603,-0L0.434,-0L0.28,-0.291Z" style="fill-opacity:0.25;fill-rule:nonzero;"/>
            </g>
            <g transform="matrix(10.8319,0,0,10.8319,839.051,711.082)">
                <path d="M0.3,0.012C0.207,0.012 0.138,-0.02 0.094,-0.083C0.049,-0.146 0.027,-0.235 0.027,-0.349C0.027,-0.463 0.049,-0.552 0.094,-0.615C0.138,-0.678 0.207,-0.71 0.3,-0.71C0.393,-0.71 0.462,-0.678 0.506,-0.615C0.551,-0.552 0.573,-0.463 0.573,-0.349C0.573,-0.235 0.551,-0.146 0.506,-0.083C0.462,-0.02 0.393,0.012 0.3,0.012ZM0.3,-0.109C0.343,-0.109 0.372,-0.125 0.389,-0.157C0.405,-0.188 0.413,-0.232 0.413,-0.289L0.413,-0.41C0.413,-0.466 0.405,-0.51 0.389,-0.542C0.372,-0.573 0.343,-0.589 0.3,-0.589C0.257,-0.589 0.228,-0.573 0.212,-0.542C0.195,-0.51 0.187,-0.466 0.187,-0.41L0.187,-0.288C0.187,-0.232 0.195,-0.188 0.212,-0.157C0.228,-0.125 0.257,-0.109 0.3,-0.109Z" style="fill-opacity:0.25;fill-rule:nonzero;"/>
            </g>
            <g transform="matrix(10.8319,0,0,10.8319,846.092,711.082)">
                <path d="M0.289,0.012C0.23,0.012 0.179,0.002 0.136,-0.017C0.093,-0.036 0.058,-0.062 0.031,-0.095L0.118,-0.191C0.143,-0.163 0.171,-0.142 0.202,-0.129C0.232,-0.116 0.263,-0.109 0.294,-0.109C0.33,-0.109 0.357,-0.117 0.376,-0.133C0.395,-0.149 0.404,-0.173 0.404,-0.203C0.404,-0.228 0.397,-0.247 0.383,-0.259C0.368,-0.272 0.344,-0.281 0.31,-0.287L0.237,-0.299C0.174,-0.309 0.129,-0.332 0.101,-0.368C0.073,-0.404 0.059,-0.447 0.059,-0.498C0.059,-0.566 0.081,-0.618 0.125,-0.655C0.169,-0.692 0.231,-0.71 0.31,-0.71C0.364,-0.71 0.411,-0.702 0.451,-0.685C0.491,-0.669 0.523,-0.646 0.548,-0.618L0.463,-0.523C0.444,-0.544 0.422,-0.56 0.397,-0.572C0.372,-0.583 0.343,-0.589 0.311,-0.589C0.244,-0.589 0.21,-0.561 0.21,-0.505C0.21,-0.481 0.218,-0.463 0.233,-0.451C0.248,-0.439 0.272,-0.43 0.306,-0.424L0.379,-0.411C0.436,-0.401 0.479,-0.379 0.51,-0.347C0.541,-0.314 0.556,-0.27 0.556,-0.215C0.556,-0.182 0.55,-0.152 0.539,-0.124C0.528,-0.097 0.511,-0.073 0.488,-0.052C0.465,-0.032 0.438,-0.016 0.405,-0.005C0.372,0.006 0.333,0.012 0.289,0.012Z" style="fill-opacity:0.25;fill-rule:nonzero;"/>
            </g>
            <g transform="matrix(10.8319,0,0,10.8319,853.132,711.082)">
                <path d="M0.375,-0.575L0.375,-0L0.225,-0L0.225,-0.575L0.024,-0.575L0.024,-0.698L0.576,-0.698L0.576,-0.575L0.375,-0.575Z" style="fill-opacity:0.25;fill-rule:nonzero;"/>
            </g>
            <g transform="matrix(10.8319,0,0,10.8319,860.173,711.082)">
                <path d="M0.225,-0L0.225,-0.247L0.004,-0.698L0.171,-0.698L0.245,-0.536L0.299,-0.399L0.307,-0.399L0.361,-0.536L0.435,-0.698L0.596,-0.698L0.375,-0.247L0.375,-0L0.225,-0ZM0.316,-0.74L0.228,-0.783L0.327,-0.977L0.45,-0.916L0.316,-0.74Z" style="fill-opacity:0.25;fill-rule:nonzero;"/>
            </g>
            <g transform="matrix(10.8319,0,0,10.8319,867.214,711.082)">
                <path d="M0.431,-0.311L0.439,-0.506L0.43,-0.506L0.3,-0.147L0.17,-0.506L0.161,-0.506L0.169,-0.311L0.169,-0L0.039,-0L0.039,-0.698L0.216,-0.698L0.302,-0.463L0.31,-0.463L0.396,-0.698L0.561,-0.698L0.561,-0L0.431,-0L0.431,-0.311Z" style="fill-opacity:0.25;fill-rule:nonzero;"/>
            </g>
            <g transform="matrix(10.8319,0,0,10.8319,874.255,711.082)">
                <path d="M0.225,-0L0.225,-0.247L0.004,-0.698L0.171,-0.698L0.245,-0.536L0.299,-0.399L0.307,-0.399L0.361,-0.536L0.435,-0.698L0.596,-0.698L0.375,-0.247L0.375,-0L0.225,-0Z" style="fill-opacity:0.25;fill-rule:nonzero;"/>
            </g>
            <g transform="matrix(10.8319,0,0,10.8319,775.684,721.914)">
                <path d="M0.092,-0L0.092,-0.698L0.243,-0.698L0.243,-0.123L0.543,-0.123L0.543,-0L0.092,-0Z" style="fill-opacity:0.25;fill-rule:nonzero;"/>
            </g>
            <g transform="matrix(10.8319,0,0,10.8319,782.725,721.914)">
                <path d="M0.075,-0L0.075,-0.111L0.225,-0.111L0.225,-0.587L0.075,-0.587L0.075,-0.698L0.525,-0.698L0.525,-0.587L0.375,-0.587L0.375,-0.111L0.525,-0.111L0.525,-0L0.075,-0Z" style="fill-opacity:0.25;fill-rule:nonzero;"/>
            </g>
            <g transform="matrix(10.8319,0,0,10.8319,789.766,721.914)">
                <path d="M0.077,-0.698L0.322,-0.698C0.391,-0.698 0.443,-0.681 0.48,-0.648C0.516,-0.615 0.534,-0.569 0.534,-0.512C0.534,-0.472 0.524,-0.44 0.504,-0.417C0.485,-0.393 0.457,-0.376 0.42,-0.365L0.42,-0.359C0.463,-0.348 0.497,-0.33 0.521,-0.303C0.544,-0.276 0.556,-0.239 0.556,-0.192C0.556,-0.133 0.538,-0.087 0.5,-0.052C0.464,-0.017 0.412,-0 0.345,-0L0.077,-0L0.077,-0.698ZM0.299,-0.105C0.335,-0.105 0.361,-0.111 0.378,-0.123C0.395,-0.135 0.403,-0.157 0.403,-0.189L0.403,-0.218C0.403,-0.25 0.395,-0.272 0.378,-0.284C0.361,-0.296 0.335,-0.302 0.299,-0.302L0.223,-0.302L0.223,-0.105L0.299,-0.105ZM0.28,-0.402C0.315,-0.402 0.341,-0.408 0.357,-0.42C0.373,-0.431 0.381,-0.452 0.381,-0.483L0.381,-0.513C0.381,-0.544 0.373,-0.565 0.357,-0.576C0.341,-0.587 0.315,-0.593 0.28,-0.593L0.223,-0.593L0.223,-0.402L0.28,-0.402Z" style="fill-opacity:0.25;fill-rule:nonzero;"/>
            </g>
            <g transform="matrix(10.8319,0,0,10.8319,796.806,721.914)">
                <path d="M0.224,-0L0.076,-0L0.076,-0.698L0.346,-0.698C0.38,-0.698 0.41,-0.693 0.437,-0.683C0.464,-0.672 0.486,-0.657 0.504,-0.638C0.523,-0.619 0.537,-0.595 0.546,-0.568C0.555,-0.541 0.56,-0.51 0.56,-0.476C0.56,-0.427 0.549,-0.384 0.528,-0.349C0.507,-0.314 0.476,-0.29 0.437,-0.279L0.574,-0L0.41,-0L0.293,-0.259L0.224,-0.259L0.224,-0ZM0.31,-0.375C0.345,-0.375 0.37,-0.382 0.384,-0.395C0.397,-0.408 0.404,-0.43 0.404,-0.461L0.404,-0.491C0.404,-0.522 0.397,-0.544 0.384,-0.557C0.37,-0.57 0.345,-0.577 0.31,-0.577L0.224,-0.577L0.224,-0.375L0.31,-0.375Z" style="fill-opacity:0.25;fill-rule:nonzero;"/>
            </g>
            <g transform="matrix(10.8319,0,0,10.8319,803.847,721.914)">
                <path d="M0.08,-0L0.08,-0.698L0.526,-0.698L0.526,-0.575L0.23,-0.575L0.23,-0.415L0.516,-0.415L0.516,-0.292L0.23,-0.292L0.23,-0.123L0.526,-0.123L0.526,-0L0.08,-0Z" style="fill-opacity:0.25;fill-rule:nonzero;"/>
            </g>
            <g transform="matrix(10.8319,0,0,10.8319,810.888,721.914)">
                <path d="M0.375,-0.575L0.375,-0L0.225,-0L0.225,-0.575L0.024,-0.575L0.024,-0.698L0.576,-0.698L0.576,-0.575L0.375,-0.575Z" style="fill-opacity:0.25;fill-rule:nonzero;"/>
            </g>
            <g transform="matrix(10.8319,0,0,10.8319,817.929,721.914)">
                <path d="M0.3,0.012C0.207,0.012 0.138,-0.02 0.094,-0.083C0.049,-0.146 0.027,-0.235 0.027,-0.349C0.027,-0.463 0.049,-0.552 0.094,-0.615C0.138,-0.678 0.207,-0.71 0.3,-0.71C0.393,-0.71 0.462,-0.678 0.506,-0.615C0.551,-0.552 0.573,-0.463 0.573,-0.349C0.573,-0.235 0.551,-0.146 0.506,-0.083C0.462,-0.02 0.393,0.012 0.3,0.012ZM0.3,-0.109C0.343,-0.109 0.372,-0.125 0.389,-0.157C0.405,-0.188 0.413,-0.232 0.413,-0.289L0.413,-0.41C0.413,-0.466 0.405,-0.51 0.389,-0.542C0.372,-0.573 0.343,-0.589 0.3,-0.589C0.257,-0.589 0.228,-0.573 0.212,-0.542C0.195,-0.51 0.187,-0.466 0.187,-0.41L0.187,-0.288C0.187,-0.232 0.195,-0.188 0.212,-0.157C0.228,-0.125 0.257,-0.109 0.3,-0.109Z" style="fill-opacity:0.25;fill-rule:nonzero;"/>
            </g>
        </g>
        <g transform="matrix(1.38479,0,0,1.38479,-602.488,67.2703)">
            <g transform="matrix(10.8319,0,0,10.8319,775.684,711.082)">
                <path d="M0.511,-0.698L0.511,-0.195C0.511,-0.164 0.505,-0.135 0.495,-0.11C0.484,-0.084 0.468,-0.062 0.448,-0.044C0.427,-0.026 0.403,-0.012 0.374,-0.003C0.345,0.007 0.313,0.012 0.278,0.012C0.207,0.012 0.152,-0.006 0.113,-0.041C0.074,-0.076 0.049,-0.123 0.038,-0.181L0.18,-0.21C0.185,-0.18 0.196,-0.156 0.211,-0.137C0.226,-0.118 0.248,-0.109 0.278,-0.109C0.303,-0.109 0.323,-0.117 0.338,-0.134C0.352,-0.15 0.359,-0.175 0.359,-0.209L0.359,-0.575L0.129,-0.575L0.129,-0.698L0.511,-0.698Z" style="fill-opacity:0.25;fill-rule:nonzero;"/>
            </g>
            <g transform="matrix(10.8319,0,0,10.8319,782.725,711.082)">
                <path d="M0.08,-0L0.08,-0.698L0.526,-0.698L0.526,-0.575L0.23,-0.575L0.23,-0.415L0.516,-0.415L0.516,-0.292L0.23,-0.292L0.23,-0.123L0.526,-0.123L0.526,-0L0.08,-0Z" style="fill-opacity:0.25;fill-rule:nonzero;"/>
            </g>
            <g transform="matrix(10.8319,0,0,10.8319,789.766,711.082)">
                <path d="M0.064,-0.698L0.289,-0.698C0.383,-0.698 0.453,-0.668 0.498,-0.608C0.543,-0.548 0.566,-0.462 0.566,-0.349C0.566,-0.236 0.543,-0.15 0.498,-0.09C0.453,-0.03 0.383,-0 0.289,-0L0.064,-0L0.064,-0.698ZM0.279,-0.118C0.324,-0.118 0.356,-0.132 0.377,-0.161C0.398,-0.19 0.408,-0.231 0.408,-0.286L0.408,-0.413C0.408,-0.467 0.398,-0.508 0.377,-0.537C0.356,-0.566 0.324,-0.58 0.279,-0.58L0.212,-0.58L0.212,-0.118L0.279,-0.118Z" style="fill-opacity:0.25;fill-rule:nonzero;"/>
            </g>
            <g transform="matrix(10.8319,0,0,10.8319,796.806,711.082)">
                <path d="M0.2,-0.464L0.189,-0.464L0.189,-0L0.061,-0L0.061,-0.698L0.241,-0.698L0.4,-0.234L0.411,-0.234L0.411,-0.698L0.539,-0.698L0.539,-0L0.359,-0L0.2,-0.464Z" style="fill-opacity:0.25;fill-rule:nonzero;"/>
            </g>
            <g transform="matrix(10.8319,0,0,10.8319,803.847,711.082)">
                <path d="M0.3,0.012C0.207,0.012 0.138,-0.02 0.094,-0.083C0.049,-0.146 0.027,-0.235 0.027,-0.349C0.027,-0.463 0.049,-0.552 0.094,-0.615C0.138,-0.678 0.207,-0.71 0.3,-0.71C0.393,-0.71 0.462,-0.678 0.506,-0.615C0.551,-0.552 0.573,-0.463 0.573,-0.349C0.573,-0.235 0.551,-0.146 0.506,-0.083C0.462,-0.02 0.393,0.012 0.3,0.012ZM0.3,-0.109C0.343,-0.109 0.372,-0.125 0.389,-0.157C0.405,-0.188 0.413,-0.232 0.413,-0.289L0.413,-0.41C0.413,-0.466 0.405,-0.51 0.389,-0.542C0.372,-0.573 0.343,-0.589 0.3,-0.589C0.257,-0.589 0.228,-0.573 0.212,-0.542C0.195,-0.51 0.187,-0.466 0.187,-0.41L0.187,-0.288C0.187,-0.232 0.195,-0.188 0.212,-0.157C0.228,-0.125 0.257,-0.109 0.3,-0.109Z" style="fill-opacity:0.25;fill-rule:nonzero;"/>
            </g>
            <g transform="matrix(10.8319,0,0,10.8319,810.888,711.082)">
                <path d="M0.375,-0.575L0.375,-0L0.225,-0L0.225,-0.575L0.024,-0.575L0.024,-0.698L0.576,-0.698L0.576,-0.575L0.375,-0.575Z" style="fill-opacity:0.25;fill-rule:nonzero;"/>
            </g>
            <g transform="matrix(10.8319,0,0,10.8319,817.929,711.082)">
                <path d="M0.092,-0L0.092,-0.698L0.243,-0.698L0.243,-0.123L0.543,-0.123L0.543,-0L0.092,-0Z" style="fill-opacity:0.25;fill-rule:nonzero;"/>
            </g>
            <g transform="matrix(10.8319,0,0,10.8319,824.969,711.082)">
                <path d="M0.075,-0L0.075,-0.111L0.225,-0.111L0.225,-0.587L0.075,-0.587L0.075,-0.698L0.525,-0.698L0.525,-0.587L0.375,-0.587L0.375,-0.111L0.525,-0.111L0.525,-0L0.075,-0Z" style="fill-opacity:0.25;fill-rule:nonzero;"/>
            </g>
            <g transform="matrix(10.8319,0,0,10.8319,832.01,711.082)">
                <path d="M0.194,-0L0.009,-0.698L0.176,-0.698L0.258,-0.343L0.299,-0.142L0.307,-0.142L0.349,-0.343L0.432,-0.698L0.591,-0.698L0.406,-0L0.194,-0Z" style="fill-opacity:0.25;fill-rule:nonzero;"/>
            </g>
            <g transform="matrix(10.8319,0,0,10.8319,839.051,711.082)">
                <path d="M0.08,-0L0.08,-0.698L0.526,-0.698L0.526,-0.575L0.23,-0.575L0.23,-0.415L0.516,-0.415L0.516,-0.292L0.23,-0.292L0.23,-0.123L0.526,-0.123L0.526,-0L0.08,-0ZM0.319,-0.74L0.231,-0.783L0.33,-0.977L0.453,-0.916L0.319,-0.74Z" style="fill-opacity:0.25;fill-rule:nonzero;"/>
            </g>
            <g transform="matrix(10.8319,0,0,10.8319,853.132,711.082)">
                <path d="M0.064,-0.698L0.289,-0.698C0.383,-0.698 0.453,-0.668 0.498,-0.608C0.543,-0.548 0.566,-0.462 0.566,-0.349C0.566,-0.236 0.543,-0.15 0.498,-0.09C0.453,-0.03 0.383,-0 0.289,-0L0.064,-0L0.064,-0.698ZM0.279,-0.118C0.324,-0.118 0.356,-0.132 0.377,-0.161C0.398,-0.19 0.408,-0.231 0.408,-0.286L0.408,-0.413C0.408,-0.467 0.398,-0.508 0.377,-0.537C0.356,-0.566 0.324,-0.58 0.279,-0.58L0.212,-0.58L0.212,-0.118L0.279,-0.118Z" style="fill-opacity:0.25;fill-rule:nonzero;"/>
            </g>
            <g transform="matrix(10.8319,0,0,10.8319,860.173,711.082)">
                <path d="M0.2,-0.464L0.189,-0.464L0.189,-0L0.061,-0L0.061,-0.698L0.241,-0.698L0.4,-0.234L0.411,-0.234L0.411,-0.698L0.539,-0.698L0.539,-0L0.359,-0L0.2,-0.464Z" style="fill-opacity:0.25;fill-rule:nonzero;"/>
            </g>
            <g transform="matrix(10.8319,0,0,10.8319,867.214,711.082)">
                <path d="M0.225,-0L0.225,-0.247L0.004,-0.698L0.171,-0.698L0.245,-0.536L0.299,-0.399L0.307,-0.399L0.361,-0.536L0.435,-0.698L0.596,-0.698L0.375,-0.247L0.375,-0L0.225,-0Z" style="fill-opacity:0.25;fill-rule:nonzero;"/>
            </g>
            <g transform="matrix(10.8319,0,0,10.8319,775.684,721.914)">
                <path d="M0.388,-0.292L0.212,-0.292L0.212,-0L0.061,-0L0.061,-0.698L0.212,-0.698L0.212,-0.415L0.388,-0.415L0.388,-0.698L0.539,-0.698L0.539,-0L0.388,-0L0.388,-0.292Z" style="fill-opacity:0.25;fill-rule:nonzero;"/>
            </g>
            <g transform="matrix(10.8319,0,0,10.8319,782.725,721.914)">
                <path d="M0.435,-0L0.391,-0.168L0.2,-0.168L0.157,-0L0.005,-0L0.194,-0.698L0.406,-0.698L0.595,-0L0.435,-0ZM0.3,-0.553L0.292,-0.553L0.224,-0.289L0.368,-0.289L0.3,-0.553Z" style="fill-opacity:0.25;fill-rule:nonzero;"/>
            </g>
            <g transform="matrix(10.8319,0,0,10.8319,789.766,721.914)">
                <path d="M0.224,-0L0.076,-0L0.076,-0.698L0.346,-0.698C0.38,-0.698 0.41,-0.693 0.437,-0.683C0.464,-0.672 0.486,-0.657 0.504,-0.638C0.523,-0.619 0.537,-0.595 0.546,-0.568C0.555,-0.541 0.56,-0.51 0.56,-0.476C0.56,-0.427 0.549,-0.384 0.528,-0.349C0.507,-0.314 0.476,-0.29 0.437,-0.279L0.574,-0L0.41,-0L0.293,-0.259L0.224,-0.259L0.224,-0ZM0.31,-0.375C0.345,-0.375 0.37,-0.382 0.384,-0.395C0.397,-0.408 0.404,-0.43 0.404,-0.461L0.404,-0.491C0.404,-0.522 0.397,-0.544 0.384,-0.557C0.37,-0.57 0.345,-0.577 0.31,-0.577L0.224,-0.577L0.224,-0.375L0.31,-0.375Z" style="fill-opacity:0.25;fill-rule:nonzero;"/>
            </g>
            <g transform="matrix(10.8319,0,0,10.8319,796.806,721.914)">
                <path d="M0.431,-0.311L0.439,-0.506L0.43,-0.506L0.3,-0.147L0.17,-0.506L0.161,-0.506L0.169,-0.311L0.169,-0L0.039,-0L0.039,-0.698L0.216,-0.698L0.302,-0.463L0.31,-0.463L0.396,-0.698L0.561,-0.698L0.561,-0L0.431,-0L0.431,-0.311Z" style="fill-opacity:0.25;fill-rule:nonzero;"/>
            </g>
            <g transform="matrix(10.8319,0,0,10.8319,803.847,721.914)">
                <path d="M0.3,0.012C0.207,0.012 0.138,-0.02 0.094,-0.083C0.049,-0.146 0.027,-0.235 0.027,-0.349C0.027,-0.463 0.049,-0.552 0.094,-0.615C0.138,-0.678 0.207,-0.71 0.3,-0.71C0.393,-0.71 0.462,-0.678 0.506,-0.615C0.551,-0.552 0.573,-0.463 0.573,-0.349C0.573,-0.235 0.551,-0.146 0.506,-0.083C0.462,-0.02 0.393,0.012 0.3,0.012ZM0.3,-0.109C0.343,-0.109 0.372,-0.125 0.389,-0.157C0.405,-0.188 0.413,-0.232 0.413,-0.289L0.413,-0.41C0.413,-0.466 0.405,-0.51 0.389,-0.542C0.372,-0.573 0.343,-0.589 0.3,-0.589C0.257,-0.589 0.228,-0.573 0.212,-0.542C0.195,-0.51 0.187,-0.466 0.187,-0.41L0.187,-0.288C0.187,-0.232 0.195,-0.188 0.212,-0.157C0.228,-0.125 0.257,-0.109 0.3,-0.109Z" style="fill-opacity:0.25;fill-rule:nonzero;"/>
            </g>
            <g transform="matrix(10.8319,0,0,10.8319,810.888,721.914)">
                <path d="M0.2,-0.464L0.189,-0.464L0.189,-0L0.061,-0L0.061,-0.698L0.241,-0.698L0.4,-0.234L0.411,-0.234L0.411,-0.698L0.539,-0.698L0.539,-0L0.359,-0L0.2,-0.464Z" style="fill-opacity:0.25;fill-rule:nonzero;"/>
            </g>
            <g transform="matrix(10.8319,0,0,10.8319,817.929,721.914)">
                <path d="M0.3,0.012C0.207,0.012 0.138,-0.02 0.094,-0.083C0.049,-0.146 0.027,-0.235 0.027,-0.349C0.027,-0.463 0.049,-0.552 0.094,-0.615C0.138,-0.678 0.207,-0.71 0.3,-0.71C0.393,-0.71 0.462,-0.678 0.506,-0.615C0.551,-0.552 0.573,-0.463 0.573,-0.349C0.573,-0.235 0.551,-0.146 0.506,-0.083C0.462,-0.02 0.393,0.012 0.3,0.012ZM0.3,-0.109C0.343,-0.109 0.372,-0.125 0.389,-0.157C0.405,-0.188 0.413,-0.232 0.413,-0.289L0.413,-0.41C0.413,-0.466 0.405,-0.51 0.389,-0.542C0.372,-0.573 0.343,-0.589 0.3,-0.589C0.257,-0.589 0.228,-0.573 0.212,-0.542C0.195,-0.51 0.187,-0.466 0.187,-0.41L0.187,-0.288C0.187,-0.232 0.195,-0.188 0.212,-0.157C0.228,-0.125 0.257,-0.109 0.3,-0.109Z" style="fill-opacity:0.25;fill-rule:nonzero;"/>
            </g>
            <g transform="matrix(10.8319,0,0,10.8319,824.969,721.914)">
                <path d="M0.411,-0.099L0.402,-0.099C0.396,-0.084 0.389,-0.07 0.38,-0.057C0.371,-0.044 0.361,-0.032 0.348,-0.021C0.335,-0.011 0.321,-0.003 0.304,0.003C0.286,0.009 0.267,0.012 0.246,0.012C0.212,0.012 0.182,0.004 0.156,-0.012C0.129,-0.028 0.107,-0.051 0.089,-0.082C0.071,-0.113 0.058,-0.15 0.049,-0.194C0.04,-0.238 0.035,-0.288 0.035,-0.343C0.035,-0.462 0.057,-0.553 0.1,-0.616C0.143,-0.679 0.21,-0.71 0.301,-0.71C0.337,-0.71 0.369,-0.705 0.396,-0.696C0.423,-0.686 0.447,-0.672 0.467,-0.655C0.486,-0.637 0.502,-0.616 0.515,-0.591C0.528,-0.566 0.538,-0.539 0.545,-0.509L0.405,-0.475C0.401,-0.49 0.397,-0.504 0.392,-0.518C0.387,-0.531 0.38,-0.543 0.372,-0.554C0.364,-0.565 0.354,-0.573 0.342,-0.58C0.33,-0.586 0.315,-0.589 0.298,-0.589C0.26,-0.589 0.233,-0.573 0.218,-0.542C0.202,-0.511 0.194,-0.467 0.194,-0.41L0.194,-0.296C0.194,-0.239 0.203,-0.194 0.22,-0.16C0.236,-0.126 0.267,-0.109 0.31,-0.109C0.344,-0.109 0.369,-0.119 0.386,-0.139C0.403,-0.159 0.411,-0.185 0.411,-0.216L0.411,-0.267L0.292,-0.267L0.292,-0.373L0.545,-0.373L0.545,-0L0.411,-0L0.411,-0.099Z" style="fill-opacity:0.25;fill-rule:nonzero;"/>
            </g>
            <g transform="matrix(10.8319,0,0,10.8319,832.01,721.914)">
                <path d="M0.224,-0L0.076,-0L0.076,-0.698L0.346,-0.698C0.38,-0.698 0.41,-0.693 0.437,-0.683C0.464,-0.672 0.486,-0.657 0.504,-0.638C0.523,-0.619 0.537,-0.595 0.546,-0.568C0.555,-0.541 0.56,-0.51 0.56,-0.476C0.56,-0.427 0.549,-0.384 0.528,-0.349C0.507,-0.314 0.476,-0.29 0.437,-0.279L0.574,-0L0.41,-0L0.293,-0.259L0.224,-0.259L0.224,-0ZM0.31,-0.375C0.345,-0.375 0.37,-0.382 0.384,-0.395C0.397,-0.408 0.404,-0.43 0.404,-0.461L0.404,-0.491C0.404,-0.522 0.397,-0.544 0.384,-0.557C0.37,-0.57 0.345,-0.577 0.31,-0.577L0.224,-0.577L0.224,-0.375L0.31,-0.375Z" style="fill-opacity:0.25;fill-rule:nonzero;"/>
            </g>
            <g transform="matrix(10.8319,0,0,10.8319,839.051,721.914)">
                <path d="M0.435,-0L0.391,-0.168L0.2,-0.168L0.157,-0L0.005,-0L0.194,-0.698L0.406,-0.698L0.595,-0L0.435,-0ZM0.3,-0.553L0.292,-0.553L0.224,-0.289L0.368,-0.289L0.3,-0.553Z" style="fill-opacity:0.25;fill-rule:nonzero;"/>
            </g>
            <g transform="matrix(10.8319,0,0,10.8319,846.092,721.914)">
                <path d="M0.431,-0.311L0.439,-0.506L0.43,-0.506L0.3,-0.147L0.17,-0.506L0.161,-0.506L0.169,-0.311L0.169,-0L0.039,-0L0.039,-0.698L0.216,-0.698L0.302,-0.463L0.31,-0.463L0.396,-0.698L0.561,-0.698L0.561,-0L0.431,-0L0.431,-0.311Z" style="fill-opacity:0.25;fill-rule:nonzero;"/>
            </g>
        </g>
        <g transform="matrix(1.38479,0,0,1.38479,-302.396,-275.145)">
            <g transform="matrix(10.8319,0,0,10.8319,775.684,711.082)">
                <path d="M0.388,-0.292L0.212,-0.292L0.212,-0L0.061,-0L0.061,-0.698L0.212,-0.698L0.212,-0.415L0.388,-0.415L0.388,-0.698L0.539,-0.698L0.539,-0L0.388,-0L0.388,-0.292Z" style="fill-opacity:0.25;fill-rule:nonzero;"/>
            </g>
            <g transform="matrix(10.8319,0,0,10.8319,782.725,711.082)">
                <path d="M0.3,0.012C0.207,0.012 0.138,-0.02 0.094,-0.083C0.049,-0.146 0.027,-0.235 0.027,-0.349C0.027,-0.463 0.049,-0.552 0.094,-0.615C0.138,-0.678 0.207,-0.71 0.3,-0.71C0.393,-0.71 0.462,-0.678 0.506,-0.615C0.551,-0.552 0.573,-0.463 0.573,-0.349C0.573,-0.235 0.551,-0.146 0.506,-0.083C0.462,-0.02 0.393,0.012 0.3,0.012ZM0.3,-0.109C0.343,-0.109 0.372,-0.125 0.389,-0.157C0.405,-0.188 0.413,-0.232 0.413,-0.289L0.413,-0.41C0.413,-0.466 0.405,-0.51 0.389,-0.542C0.372,-0.573 0.343,-0.589 0.3,-0.589C0.257,-0.589 0.228,-0.573 0.212,-0.542C0.195,-0.51 0.187,-0.466 0.187,-0.41L0.187,-0.288C0.187,-0.232 0.195,-0.188 0.212,-0.157C0.228,-0.125 0.257,-0.109 0.3,-0.109Z" style="fill-opacity:0.25;fill-rule:nonzero;"/>
            </g>
            <g transform="matrix(10.8319,0,0,10.8319,789.766,711.082)">
                <path d="M0.064,-0.698L0.289,-0.698C0.383,-0.698 0.453,-0.668 0.498,-0.608C0.543,-0.548 0.566,-0.462 0.566,-0.349C0.566,-0.236 0.543,-0.15 0.498,-0.09C0.453,-0.03 0.383,-0 0.289,-0L0.064,-0L0.064,-0.698ZM0.279,-0.118C0.324,-0.118 0.356,-0.132 0.377,-0.161C0.398,-0.19 0.408,-0.231 0.408,-0.286L0.408,-0.413C0.408,-0.467 0.398,-0.508 0.377,-0.537C0.356,-0.566 0.324,-0.58 0.279,-0.58L0.212,-0.58L0.212,-0.118L0.279,-0.118Z" style="fill-opacity:0.25;fill-rule:nonzero;"/>
            </g>
            <g transform="matrix(10.8319,0,0,10.8319,796.806,711.082)">
                <path d="M0.2,-0.464L0.189,-0.464L0.189,-0L0.061,-0L0.061,-0.698L0.241,-0.698L0.4,-0.234L0.411,-0.234L0.411,-0.698L0.539,-0.698L0.539,-0L0.359,-0L0.2,-0.464Z" style="fill-opacity:0.25;fill-rule:nonzero;"/>
            </g>
            <g transform="matrix(10.8319,0,0,10.8319,803.847,711.082)">
                <path d="M0.3,0.012C0.207,0.012 0.138,-0.02 0.094,-0.083C0.049,-0.146 0.027,-0.235 0.027,-0.349C0.027,-0.463 0.049,-0.552 0.094,-0.615C0.138,-0.678 0.207,-0.71 0.3,-0.71C0.393,-0.71 0.462,-0.678 0.506,-0.615C0.551,-0.552 0.573,-0.463 0.573,-0.349C0.573,-0.235 0.551,-0.146 0.506,-0.083C0.462,-0.02 0.393,0.012 0.3,0.012ZM0.3,-0.109C0.343,-0.109 0.372,-0.125 0.389,-0.157C0.405,-0.188 0.413,-0.232 0.413,-0.289L0.413,-0.41C0.413,-0.466 0.405,-0.51 0.389,-0.542C0.372,-0.573 0.343,-0.589 0.3,-0.589C0.257,-0.589 0.228,-0.573 0.212,-0.542C0.195,-0.51 0.187,-0.466 0.187,-0.41L0.187,-0.288C0.187,-0.232 0.195,-0.188 0.212,-0.157C0.228,-0.125 0.257,-0.109 0.3,-0.109Z" style="fill-opacity:0.25;fill-rule:nonzero;"/>
            </g>
            <g transform="matrix(10.8319,0,0,10.8319,810.888,711.082)">
                <path d="M0.316,0.012C0.223,0.012 0.154,-0.02 0.109,-0.083C0.064,-0.146 0.041,-0.234 0.041,-0.349C0.041,-0.464 0.064,-0.553 0.109,-0.616C0.154,-0.679 0.223,-0.71 0.316,-0.71C0.352,-0.71 0.384,-0.705 0.411,-0.696C0.439,-0.686 0.463,-0.672 0.483,-0.655C0.503,-0.638 0.52,-0.617 0.533,-0.592C0.546,-0.567 0.556,-0.54 0.563,-0.509L0.423,-0.475C0.419,-0.492 0.414,-0.507 0.409,-0.521C0.404,-0.535 0.397,-0.547 0.389,-0.557C0.38,-0.567 0.37,-0.575 0.358,-0.581C0.345,-0.586 0.33,-0.589 0.313,-0.589C0.272,-0.589 0.244,-0.573 0.227,-0.542C0.21,-0.51 0.201,-0.466 0.201,-0.41L0.201,-0.288C0.201,-0.232 0.21,-0.188 0.227,-0.157C0.244,-0.125 0.272,-0.109 0.313,-0.109C0.348,-0.109 0.373,-0.12 0.389,-0.141C0.404,-0.162 0.416,-0.19 0.423,-0.223L0.563,-0.189C0.556,-0.158 0.546,-0.131 0.533,-0.106C0.52,-0.081 0.503,-0.06 0.483,-0.043C0.463,-0.025 0.439,-0.011 0.411,-0.002C0.384,0.007 0.352,0.012 0.316,0.012Z" style="fill-opacity:0.25;fill-rule:nonzero;"/>
            </g>
            <g transform="matrix(10.8319,0,0,10.8319,817.929,711.082)">
                <path d="M0.08,-0L0.08,-0.698L0.526,-0.698L0.526,-0.575L0.23,-0.575L0.23,-0.415L0.516,-0.415L0.516,-0.292L0.23,-0.292L0.23,-0.123L0.526,-0.123L0.526,-0L0.08,-0Z" style="fill-opacity:0.25;fill-rule:nonzero;"/>
            </g>
            <g transform="matrix(10.8319,0,0,10.8319,824.969,711.082)">
                <path d="M0.2,-0.464L0.189,-0.464L0.189,-0L0.061,-0L0.061,-0.698L0.241,-0.698L0.4,-0.234L0.411,-0.234L0.411,-0.698L0.539,-0.698L0.539,-0L0.359,-0L0.2,-0.464Z" style="fill-opacity:0.25;fill-rule:nonzero;"/>
            </g>
            <g transform="matrix(10.8319,0,0,10.8319,832.01,711.082)">
                <path d="M0.075,-0L0.075,-0.111L0.225,-0.111L0.225,-0.587L0.075,-0.587L0.075,-0.698L0.525,-0.698L0.525,-0.587L0.375,-0.587L0.375,-0.111L0.525,-0.111L0.525,-0L0.075,-0ZM0.316,-0.74L0.228,-0.783L0.327,-0.977L0.45,-0.916L0.316,-0.74Z" style="fill-opacity:0.25;fill-rule:nonzero;"/>
            </g>
            <g transform="matrix(10.8319,0,0,10.8319,775.684,721.914)">
                <path d="M0.289,0.012C0.23,0.012 0.179,0.002 0.136,-0.017C0.093,-0.036 0.058,-0.062 0.031,-0.095L0.118,-0.191C0.143,-0.163 0.171,-0.142 0.202,-0.129C0.232,-0.116 0.263,-0.109 0.294,-0.109C0.33,-0.109 0.357,-0.117 0.376,-0.133C0.395,-0.149 0.404,-0.173 0.404,-0.203C0.404,-0.228 0.397,-0.247 0.383,-0.259C0.368,-0.272 0.344,-0.281 0.31,-0.287L0.237,-0.299C0.174,-0.309 0.129,-0.332 0.101,-0.368C0.073,-0.404 0.059,-0.447 0.059,-0.498C0.059,-0.566 0.081,-0.618 0.125,-0.655C0.169,-0.692 0.231,-0.71 0.31,-0.71C0.364,-0.71 0.411,-0.702 0.451,-0.685C0.491,-0.669 0.523,-0.646 0.548,-0.618L0.463,-0.523C0.444,-0.544 0.422,-0.56 0.397,-0.572C0.372,-0.583 0.343,-0.589 0.311,-0.589C0.244,-0.589 0.21,-0.561 0.21,-0.505C0.21,-0.481 0.218,-0.463 0.233,-0.451C0.248,-0.439 0.272,-0.43 0.306,-0.424L0.379,-0.411C0.436,-0.401 0.479,-0.379 0.51,-0.347C0.541,-0.314 0.556,-0.27 0.556,-0.215C0.556,-0.182 0.55,-0.152 0.539,-0.124C0.528,-0.097 0.511,-0.073 0.488,-0.052C0.465,-0.032 0.438,-0.016 0.405,-0.005C0.372,0.006 0.333,0.012 0.289,0.012Z" style="fill-opacity:0.25;fill-rule:nonzero;"/>
            </g>
            <g transform="matrix(10.8319,0,0,10.8319,782.725,721.914)">
                <path d="M0.076,-0L0.076,-0.698L0.346,-0.698C0.38,-0.698 0.41,-0.693 0.437,-0.683C0.464,-0.672 0.486,-0.657 0.504,-0.638C0.523,-0.619 0.537,-0.595 0.546,-0.568C0.555,-0.541 0.56,-0.51 0.56,-0.476C0.56,-0.442 0.555,-0.411 0.546,-0.384C0.537,-0.357 0.523,-0.333 0.504,-0.314C0.486,-0.295 0.464,-0.28 0.437,-0.27C0.41,-0.259 0.38,-0.254 0.346,-0.254L0.227,-0.254L0.227,-0L0.076,-0ZM0.227,-0.375L0.308,-0.375C0.343,-0.375 0.368,-0.382 0.382,-0.395C0.395,-0.408 0.402,-0.43 0.402,-0.461L0.402,-0.491C0.402,-0.522 0.395,-0.544 0.382,-0.557C0.368,-0.57 0.343,-0.577 0.308,-0.577L0.227,-0.577L0.227,-0.375Z" style="fill-opacity:0.25;fill-rule:nonzero;"/>
            </g>
            <g transform="matrix(10.8319,0,0,10.8319,789.766,721.914)">
                <path d="M0.3,0.012C0.207,0.012 0.138,-0.02 0.094,-0.083C0.049,-0.146 0.027,-0.235 0.027,-0.349C0.027,-0.463 0.049,-0.552 0.094,-0.615C0.138,-0.678 0.207,-0.71 0.3,-0.71C0.393,-0.71 0.462,-0.678 0.506,-0.615C0.551,-0.552 0.573,-0.463 0.573,-0.349C0.573,-0.235 0.551,-0.146 0.506,-0.083C0.462,-0.02 0.393,0.012 0.3,0.012ZM0.3,-0.109C0.343,-0.109 0.372,-0.125 0.389,-0.157C0.405,-0.188 0.413,-0.232 0.413,-0.289L0.413,-0.41C0.413,-0.466 0.405,-0.51 0.389,-0.542C0.372,-0.573 0.343,-0.589 0.3,-0.589C0.257,-0.589 0.228,-0.573 0.212,-0.542C0.195,-0.51 0.187,-0.466 0.187,-0.41L0.187,-0.288C0.187,-0.232 0.195,-0.188 0.212,-0.157C0.228,-0.125 0.257,-0.109 0.3,-0.109Z" style="fill-opacity:0.25;fill-rule:nonzero;"/>
            </g>
            <g transform="matrix(10.8319,0,0,10.8319,796.806,721.914)">
                <path d="M0.224,-0L0.076,-0L0.076,-0.698L0.346,-0.698C0.38,-0.698 0.41,-0.693 0.437,-0.683C0.464,-0.672 0.486,-0.657 0.504,-0.638C0.523,-0.619 0.537,-0.595 0.546,-0.568C0.555,-0.541 0.56,-0.51 0.56,-0.476C0.56,-0.427 0.549,-0.384 0.528,-0.349C0.507,-0.314 0.476,-0.29 0.437,-0.279L0.574,-0L0.41,-0L0.293,-0.259L0.224,-0.259L0.224,-0ZM0.31,-0.375C0.345,-0.375 0.37,-0.382 0.384,-0.395C0.397,-0.408 0.404,-0.43 0.404,-0.461L0.404,-0.491C0.404,-0.522 0.397,-0.544 0.384,-0.557C0.37,-0.57 0.345,-0.577 0.31,-0.577L0.224,-0.577L0.224,-0.375L0.31,-0.375Z" style="fill-opacity:0.25;fill-rule:nonzero;"/>
            </g>
            <g transform="matrix(10.8319,0,0,10.8319,803.847,721.914)">
                <path d="M0.375,-0.575L0.375,-0L0.225,-0L0.225,-0.575L0.024,-0.575L0.024,-0.698L0.576,-0.698L0.576,-0.575L0.375,-0.575Z" style="fill-opacity:0.25;fill-rule:nonzero;"/>
            </g>
            <g transform="matrix(10.8319,0,0,10.8319,810.888,721.914)">
                <path d="M0.227,-0.174L0.417,-0.174L0.28,0.151L0.17,0.151L0.227,-0.174Z" style="fill-opacity:0.25;fill-rule:nonzero;"/>
            </g>
            <g transform="matrix(10.8319,0,0,10.8319,824.969,721.914)">
                <path d="M0.316,0.012C0.223,0.012 0.154,-0.02 0.109,-0.083C0.064,-0.146 0.041,-0.234 0.041,-0.349C0.041,-0.464 0.064,-0.553 0.109,-0.616C0.154,-0.679 0.223,-0.71 0.316,-0.71C0.352,-0.71 0.384,-0.705 0.411,-0.696C0.439,-0.686 0.463,-0.672 0.483,-0.655C0.503,-0.638 0.52,-0.617 0.533,-0.592C0.546,-0.567 0.556,-0.54 0.563,-0.509L0.423,-0.475C0.419,-0.492 0.414,-0.507 0.409,-0.521C0.404,-0.535 0.397,-0.547 0.389,-0.557C0.38,-0.567 0.37,-0.575 0.358,-0.581C0.345,-0.586 0.33,-0.589 0.313,-0.589C0.272,-0.589 0.244,-0.573 0.227,-0.542C0.21,-0.51 0.201,-0.466 0.201,-0.41L0.201,-0.288C0.201,-0.232 0.21,-0.188 0.227,-0.157C0.244,-0.125 0.272,-0.109 0.313,-0.109C0.348,-0.109 0.373,-0.12 0.389,-0.141C0.404,-0.162 0.416,-0.19 0.423,-0.223L0.563,-0.189C0.556,-0.158 0.546,-0.131 0.533,-0.106C0.52,-0.081 0.503,-0.06 0.483,-0.043C0.463,-0.025 0.439,-0.011 0.411,-0.002C0.384,0.007 0.352,0.012 0.316,0.012Z" style="fill-opacity:0.25;fill-rule:nonzero;"/>
            </g>
            <g transform="matrix(10.8319,0,0,10.8319,832.01,721.914)">
                <path d="M0.08,-0L0.08,-0.698L0.526,-0.698L0.526,-0.575L0.23,-0.575L0.23,-0.415L0.516,-0.415L0.516,-0.292L0.23,-0.292L0.23,-0.123L0.526,-0.123L0.526,-0L0.08,-0Z" style="fill-opacity:0.25;fill-rule:nonzero;"/>
            </g>
            <g transform="matrix(10.8319,0,0,10.8319,839.051,721.914)">
                <path d="M0.316,0.012C0.223,0.012 0.154,-0.02 0.109,-0.083C0.064,-0.146 0.041,-0.234 0.041,-0.349C0.041,-0.464 0.064,-0.553 0.109,-0.616C0.154,-0.679 0.223,-0.71 0.316,-0.71C0.352,-0.71 0.384,-0.705 0.411,-0.696C0.439,-0.686 0.463,-0.672 0.483,-0.655C0.503,-0.638 0.52,-0.617 0.533,-0.592C0.546,-0.567 0.556,-0.54 0.563,-0.509L0.423,-0.475C0.419,-0.492 0.414,-0.507 0.409,-0.521C0.404,-0.535 0.397,-0.547 0.389,-0.557C0.38,-0.567 0.37,-0.575 0.358,-0.581C0.345,-0.586 0.33,-0.589 0.313,-0.589C0.272,-0.589 0.244,-0.573 0.227,-0.542C0.21,-0.51 0.201,-0.466 0.201,-0.41L0.201,-0.288C0.201,-0.232 0.21,-0.188 0.227,-0.157C0.244,-0.125 0.272,-0.109 0.313,-0.109C0.348,-0.109 0.373,-0.12 0.389,-0.141C0.404,-0.162 0.416,-0.19 0.423,-0.223L0.563,-0.189C0.556,-0.158 0.546,-0.131 0.533,-0.106C0.52,-0.081 0.503,-0.06 0.483,-0.043C0.463,-0.025 0.439,-0.011 0.411,-0.002C0.384,0.007 0.352,0.012 0.316,0.012Z" style="fill-opacity:0.25;fill-rule:nonzero;"/>
            </g>
            <g transform="matrix(10.8319,0,0,10.8319,846.092,721.914)">
                <path d="M0.388,-0.292L0.212,-0.292L0.212,-0L0.061,-0L0.061,-0.698L0.212,-0.698L0.212,-0.415L0.388,-0.415L0.388,-0.698L0.539,-0.698L0.539,-0L0.388,-0L0.388,-0.292Z" style="fill-opacity:0.25;fill-rule:nonzero;"/>
            </g>
            <g transform="matrix(10.8319,0,0,10.8319,853.132,721.914)">
                <path d="M0.225,-0L0.225,-0.247L0.004,-0.698L0.171,-0.698L0.245,-0.536L0.299,-0.399L0.307,-0.399L0.361,-0.536L0.435,-0.698L0.596,-0.698L0.375,-0.247L0.375,-0L0.225,-0Z" style="fill-opacity:0.25;fill-rule:nonzero;"/>
            </g>
        </g>
        <g transform="matrix(1.38479,0,0,1.38479,-33.1791,-249.001)">
            <g transform="matrix(10.8319,0,0,10.8319,775.684,711.082)">
                <path d="M0.289,0.012C0.23,0.012 0.179,0.002 0.136,-0.017C0.093,-0.036 0.058,-0.062 0.031,-0.095L0.118,-0.191C0.143,-0.163 0.171,-0.142 0.202,-0.129C0.232,-0.116 0.263,-0.109 0.294,-0.109C0.33,-0.109 0.357,-0.117 0.376,-0.133C0.395,-0.149 0.404,-0.173 0.404,-0.203C0.404,-0.228 0.397,-0.247 0.383,-0.259C0.368,-0.272 0.344,-0.281 0.31,-0.287L0.237,-0.299C0.174,-0.309 0.129,-0.332 0.101,-0.368C0.073,-0.404 0.059,-0.447 0.059,-0.498C0.059,-0.566 0.081,-0.618 0.125,-0.655C0.169,-0.692 0.231,-0.71 0.31,-0.71C0.364,-0.71 0.411,-0.702 0.451,-0.685C0.491,-0.669 0.523,-0.646 0.548,-0.618L0.463,-0.523C0.444,-0.544 0.422,-0.56 0.397,-0.572C0.372,-0.583 0.343,-0.589 0.311,-0.589C0.244,-0.589 0.21,-0.561 0.21,-0.505C0.21,-0.481 0.218,-0.463 0.233,-0.451C0.248,-0.439 0.272,-0.43 0.306,-0.424L0.379,-0.411C0.436,-0.401 0.479,-0.379 0.51,-0.347C0.541,-0.314 0.556,-0.27 0.556,-0.215C0.556,-0.182 0.55,-0.152 0.539,-0.124C0.528,-0.097 0.511,-0.073 0.488,-0.052C0.465,-0.032 0.438,-0.016 0.405,-0.005C0.372,0.006 0.333,0.012 0.289,0.012Z" style="fill-opacity:0.25;fill-rule:nonzero;"/>
            </g>
            <g transform="matrix(10.8319,0,0,10.8319,782.725,711.082)">
                <path d="M0.092,-0L0.092,-0.698L0.243,-0.698L0.243,-0.123L0.543,-0.123L0.543,-0L0.092,-0Z" style="fill-opacity:0.25;fill-rule:nonzero;"/>
            </g>
            <g transform="matrix(10.8319,0,0,10.8319,789.766,711.082)">
                <path d="M0.205,-0.698L0.205,-0.256C0.205,-0.234 0.206,-0.214 0.207,-0.196C0.209,-0.177 0.213,-0.162 0.22,-0.149C0.226,-0.136 0.235,-0.127 0.248,-0.119C0.261,-0.113 0.278,-0.109 0.3,-0.109C0.322,-0.109 0.339,-0.113 0.352,-0.119C0.365,-0.127 0.374,-0.136 0.381,-0.149C0.387,-0.162 0.391,-0.177 0.393,-0.196C0.394,-0.214 0.395,-0.234 0.395,-0.256L0.395,-0.698L0.545,-0.698L0.545,-0.276C0.545,-0.228 0.542,-0.186 0.536,-0.15C0.529,-0.114 0.517,-0.084 0.499,-0.06C0.481,-0.036 0.456,-0.018 0.424,-0.006C0.392,0.006 0.351,0.012 0.3,0.012C0.249,0.012 0.208,0.006 0.176,-0.006C0.144,-0.018 0.119,-0.036 0.101,-0.06C0.083,-0.084 0.071,-0.114 0.065,-0.15C0.058,-0.186 0.055,-0.228 0.055,-0.276L0.055,-0.698L0.205,-0.698Z" style="fill-opacity:0.25;fill-rule:nonzero;"/>
            </g>
            <g transform="matrix(10.8319,0,0,10.8319,796.806,711.082)">
                <path d="M0.551,-0L0.048,-0L0.048,-0.131L0.373,-0.575L0.058,-0.575L0.058,-0.698L0.541,-0.698L0.541,-0.567L0.216,-0.123L0.551,-0.123L0.551,-0ZM0.238,-0.748L0.106,-0.907L0.181,-0.965L0.302,-0.85L0.423,-0.965L0.494,-0.907L0.362,-0.748L0.238,-0.748Z" style="fill-opacity:0.25;fill-rule:nonzero;"/>
            </g>
            <g transform="matrix(10.8319,0,0,10.8319,803.847,711.082)">
                <path d="M0.077,-0.698L0.322,-0.698C0.391,-0.698 0.443,-0.681 0.48,-0.648C0.516,-0.615 0.534,-0.569 0.534,-0.512C0.534,-0.472 0.524,-0.44 0.504,-0.417C0.485,-0.393 0.457,-0.376 0.42,-0.365L0.42,-0.359C0.463,-0.348 0.497,-0.33 0.521,-0.303C0.544,-0.276 0.556,-0.239 0.556,-0.192C0.556,-0.133 0.538,-0.087 0.5,-0.052C0.464,-0.017 0.412,-0 0.345,-0L0.077,-0L0.077,-0.698ZM0.299,-0.105C0.335,-0.105 0.361,-0.111 0.378,-0.123C0.395,-0.135 0.403,-0.157 0.403,-0.189L0.403,-0.218C0.403,-0.25 0.395,-0.272 0.378,-0.284C0.361,-0.296 0.335,-0.302 0.299,-0.302L0.223,-0.302L0.223,-0.105L0.299,-0.105ZM0.28,-0.402C0.315,-0.402 0.341,-0.408 0.357,-0.42C0.373,-0.431 0.381,-0.452 0.381,-0.483L0.381,-0.513C0.381,-0.544 0.373,-0.565 0.357,-0.576C0.341,-0.587 0.315,-0.593 0.28,-0.593L0.223,-0.593L0.223,-0.402L0.28,-0.402Z" style="fill-opacity:0.25;fill-rule:nonzero;"/>
            </g>
            <g transform="matrix(10.8319,0,0,10.8319,810.888,711.082)">
                <path d="M0.225,-0L0.225,-0.247L0.004,-0.698L0.171,-0.698L0.245,-0.536L0.299,-0.399L0.307,-0.399L0.361,-0.536L0.435,-0.698L0.596,-0.698L0.375,-0.247L0.375,-0L0.225,-0Z" style="fill-opacity:0.25;fill-rule:nonzero;"/>
            </g>
            <g transform="matrix(10.8319,0,0,10.8319,775.684,721.914)">
                <path d="M0.388,-0.292L0.212,-0.292L0.212,-0L0.061,-0L0.061,-0.698L0.212,-0.698L0.212,-0.415L0.388,-0.415L0.388,-0.698L0.539,-0.698L0.539,-0L0.388,-0L0.388,-0.292Z" style="fill-opacity:0.25;fill-rule:nonzero;"/>
            </g>
            <g transform="matrix(10.8319,0,0,10.8319,782.725,721.914)">
                <path d="M0.092,-0L0.092,-0.698L0.243,-0.698L0.243,-0.123L0.543,-0.123L0.543,-0L0.092,-0Z" style="fill-opacity:0.25;fill-rule:nonzero;"/>
            </g>
            <g transform="matrix(10.8319,0,0,10.8319,789.766,721.914)">
                <path d="M0.075,-0L0.075,-0.111L0.225,-0.111L0.225,-0.587L0.075,-0.587L0.075,-0.698L0.525,-0.698L0.525,-0.587L0.375,-0.587L0.375,-0.111L0.525,-0.111L0.525,-0L0.075,-0ZM0.316,-0.74L0.228,-0.783L0.327,-0.977L0.45,-0.916L0.316,-0.74Z" style="fill-opacity:0.25;fill-rule:nonzero;"/>
            </g>
            <g transform="matrix(10.8319,0,0,10.8319,796.806,721.914)">
                <path d="M0.064,-0.698L0.289,-0.698C0.383,-0.698 0.453,-0.668 0.498,-0.608C0.543,-0.548 0.566,-0.462 0.566,-0.349C0.566,-0.236 0.543,-0.15 0.498,-0.09C0.453,-0.03 0.383,-0 0.289,-0L0.064,-0L0.064,-0.698ZM0.279,-0.118C0.324,-0.118 0.356,-0.132 0.377,-0.161C0.398,-0.19 0.408,-0.231 0.408,-0.286L0.408,-0.413C0.408,-0.467 0.398,-0.508 0.377,-0.537C0.356,-0.566 0.324,-0.58 0.279,-0.58L0.212,-0.58L0.212,-0.118L0.279,-0.118Z" style="fill-opacity:0.25;fill-rule:nonzero;"/>
            </g>
            <g transform="matrix(10.8319,0,0,10.8319,803.847,721.914)">
                <path d="M0.28,-0.291L0.218,-0.204L0.218,-0L0.068,-0L0.068,-0.698L0.218,-0.698L0.218,-0.406L0.226,-0.406L0.302,-0.522L0.425,-0.698L0.593,-0.698L0.384,-0.403L0.603,-0L0.434,-0L0.28,-0.291Z" style="fill-opacity:0.25;fill-rule:nonzero;"/>
            </g>
            <g transform="matrix(10.8319,0,0,10.8319,810.888,721.914)">
                <path d="M0.225,-0L0.225,-0.247L0.004,-0.698L0.171,-0.698L0.245,-0.536L0.299,-0.399L0.307,-0.399L0.361,-0.536L0.435,-0.698L0.596,-0.698L0.375,-0.247L0.375,-0L0.225,-0Z" style="fill-opacity:0.25;fill-rule:nonzero;"/>
            </g>
        </g>
    </g>
</svg>
